<?xml version="1.0" encoding="us-ascii" standalone="no"?><svg xmlns="http://www.w3.org/2000/svg" xmlns:xlink="http://www.w3.org/1999/xlink" contentStyleType="text/css" height="834px" preserveAspectRatio="none" style="width:1059px;height:834px;background:#FFFFFF;" version="1.1" viewBox="0 0 1059 834" width="1059px" zoomAndPan="magnify"><defs/><g><text fill="#000000" font-family="sans-serif" font-size="14" font-weight="bold" lengthAdjust="spacing" textLength="215" x="415.25" y="25.1074">&#1043;&#1088;&#1091;&#1087;&#1087;&#1080;&#1088;&#1086;&#1074;&#1082;&#1072; &#1087;&#1088;&#1086;&#1077;&#1082;&#1090;&#1085;&#1099;&#1093; &#1079;&#1072;&#1076;&#1072;&#1095;</text><!--class Romashka_ApplicationDataObject_SPPR_Dokument_rtGruppirovkaProektnykhZadach--><g id="elem_Romashka_ApplicationDataObject_SPPR_Dokument_rtGruppirovkaProektnykhZadach"><rect codeLine="5" fill="#F1F1F1" height="215.5898" id="Romashka_ApplicationDataObject_SPPR_Dokument_rtGruppirovkaProektnykhZadach" rx="2.5" ry="2.5" style="stroke:#181818;stroke-width:0.5;" width="230" x="423.5" y="459.6211"/><ellipse cx="438.5" cy="475.6211" fill="#ADD1B2" rx="11" ry="11" style="stroke:#181818;stroke-width:1.0;"/><path d="M437.3594,476.418 L437.3594,478.918 L441.6875,478.918 L441.6875,477.9961 Q441.6875,477.3867 441.9219,477.1211 Q442.1719,476.8555 442.5469,476.8555 Q442.9219,476.8555 443.1563,477.1211 Q443.3906,477.3867 443.3906,477.9961 L443.3906,480.6211 L435.3906,480.6211 Q434.7656,480.6211 434.5,480.3867 Q434.25,480.1523 434.25,479.7617 Q434.25,479.3867 434.5156,479.1523 Q434.7813,478.918 435.3906,478.918 L435.6563,478.918 L435.6563,472.2617 L435.3906,472.2617 Q434.7656,472.2617 434.5,472.0273 Q434.25,471.793 434.25,471.4023 Q434.25,471.0273 434.5,470.793 Q434.7656,470.5586 435.3906,470.5586 L443.0156,470.5586 L443.0156,473.1523 Q443.0156,473.7617 442.7813,474.0273 Q442.5625,474.2773 442.1719,474.2773 Q441.7969,474.2773 441.5625,474.0273 Q441.3281,473.7617 441.3281,473.1523 L441.3281,472.2617 L437.3594,472.2617 L437.3594,474.7148 L438.8438,474.7148 Q438.8438,474.0586 438.9688,473.8711 Q439.2344,473.4648 439.7031,473.4648 Q440.0781,473.4648 440.3125,473.7305 Q440.5469,473.9805 440.5469,474.5898 L440.5469,476.5586 Q440.5469,477.1055 440.4219,477.293 Q440.1563,477.6836 439.7031,477.6836 Q439.2344,477.6836 438.9688,477.2773 Q438.8438,477.0898 438.8438,476.418 L437.3594,476.418 Z " fill="#000000"/><a href="/entities/erdiagram/er_format?id=Romashka.ApplicationDataObject.SPPR.Dokument.rtGruppirovkaProektnykhZadach" target="_top" title="/entities/erdiagram/er_format?id=Romashka.ApplicationDataObject.SPPR.Dokument.rtGruppirovkaProektnykhZadach" xlink:actuate="onRequest" xlink:href="/entities/erdiagram/er_format?id=Romashka.ApplicationDataObject.SPPR.Dokument.rtGruppirovkaProektnykhZadach" xlink:show="new" xlink:title="/entities/erdiagram/er_format?id=Romashka.ApplicationDataObject.SPPR.Dokument.rtGruppirovkaProektnykhZadach" xlink:type="simple"><text fill="#0000FF" font-family="sans-serif" font-size="14" lengthAdjust="spacing" text-decoration="underline" textLength="198" x="452.5" y="481.418">&#1043;&#1088;&#1091;&#1087;&#1087;&#1080;&#1088;&#1086;&#1074;&#1082;&#1072; &#1087;&#1088;&#1086;&#1077;&#1082;&#1090;&#1085;&#1099;&#1093; &#1079;&#1072;&#1076;&#1072;&#1095;</text></a><line style="stroke:#181818;stroke-width:0.5;" x1="424.5" x2="652.5" y1="491.6211" y2="491.6211"/><text fill="#000000" font-family="sans-serif" font-size="14" lengthAdjust="spacing" textLength="93" x="429.5" y="510.7285">&#1042;&#1080;&#1076;&#1054;&#1087;&#1077;&#1088;&#1072;&#1094;&#1080;&#1080;</text><text fill="#000000" font-family="sans-serif" font-size="14" lengthAdjust="spacing" textLength="32" x="429.5" y="529.3496">&#1044;&#1072;&#1090;&#1072;</text><text fill="#000000" font-family="sans-serif" font-size="14" lengthAdjust="spacing" textLength="43" x="429.5" y="547.9707">&#1053;&#1086;&#1084;&#1077;&#1088;</text><text fill="#000000" font-family="sans-serif" font-size="14" lengthAdjust="spacing" textLength="121" x="429.5" y="566.5918">&#1055;&#1086;&#1084;&#1077;&#1090;&#1082;&#1072;&#1059;&#1076;&#1072;&#1083;&#1077;&#1085;&#1080;&#1103;</text><text fill="#000000" font-family="sans-serif" font-size="14" lengthAdjust="spacing" textLength="64" x="429.5" y="585.2129">&#1055;&#1088;&#1086;&#1074;&#1077;&#1076;&#1077;&#1085;</text><text fill="#000000" font-family="sans-serif" font-size="14" lengthAdjust="spacing" textLength="46" x="429.5" y="603.834">&#1055;&#1088;&#1086;&#1077;&#1082;&#1090;</text><text fill="#000000" font-family="sans-serif" font-size="14" lengthAdjust="spacing" textLength="56" x="429.5" y="622.4551">&#1055;&#1088;&#1086;&#1094;&#1077;&#1089;&#1089;</text><text fill="#000000" font-family="sans-serif" font-size="14" lengthAdjust="spacing" textLength="101" x="429.5" y="641.0762">&#1056;&#1072;&#1079;&#1076;&#1077;&#1083;&#1055;&#1088;&#1086;&#1077;&#1082;&#1090;&#1072;</text><text fill="#000000" font-family="sans-serif" font-size="14" lengthAdjust="spacing" textLength="49" x="429.5" y="659.6973">&#1057;&#1089;&#1099;&#1083;&#1082;&#1072;</text><line style="stroke:#181818;stroke-width:0.5;" x1="424.5" x2="652.5" y1="667.2109" y2="667.2109"/></g><!--class Romashka_ApplicationDataObject_SPPR_Spravochnik_Proekty--><g id="elem_Romashka_ApplicationDataObject_SPPR_Spravochnik_Proekty"><rect codeLine="17" fill="#F1F1F1" height="345.9375" id="Romashka_ApplicationDataObject_SPPR_Spravochnik_Proekty" rx="2.5" ry="2.5" style="stroke:#181818;stroke-width:0.5;" width="371" x="7" y="46.6211"/><ellipse cx="160.25" cy="62.6211" fill="#ADD1B2" rx="11" ry="11" style="stroke:#181818;stroke-width:1.0;"/><path d="M159.1094,63.418 L159.1094,65.918 L163.4375,65.918 L163.4375,64.9961 Q163.4375,64.3867 163.6719,64.1211 Q163.9219,63.8555 164.2969,63.8555 Q164.6719,63.8555 164.9063,64.1211 Q165.1406,64.3867 165.1406,64.9961 L165.1406,67.6211 L157.1406,67.6211 Q156.5156,67.6211 156.25,67.3867 Q156,67.1523 156,66.7617 Q156,66.3867 156.2656,66.1523 Q156.5313,65.918 157.1406,65.918 L157.4063,65.918 L157.4063,59.2617 L157.1406,59.2617 Q156.5156,59.2617 156.25,59.0273 Q156,58.793 156,58.4023 Q156,58.0273 156.25,57.793 Q156.5156,57.5586 157.1406,57.5586 L164.7656,57.5586 L164.7656,60.1523 Q164.7656,60.7617 164.5313,61.0273 Q164.3125,61.2773 163.9219,61.2773 Q163.5469,61.2773 163.3125,61.0273 Q163.0781,60.7617 163.0781,60.1523 L163.0781,59.2617 L159.1094,59.2617 L159.1094,61.7148 L160.5938,61.7148 Q160.5938,61.0586 160.7188,60.8711 Q160.9844,60.4648 161.4531,60.4648 Q161.8281,60.4648 162.0625,60.7305 Q162.2969,60.9805 162.2969,61.5898 L162.2969,63.5586 Q162.2969,64.1055 162.1719,64.293 Q161.9063,64.6836 161.4531,64.6836 Q160.9844,64.6836 160.7188,64.2773 Q160.5938,64.0898 160.5938,63.418 L159.1094,63.418 Z " fill="#000000"/><a href="/entities/erdiagram/er_format?id=Romashka.ApplicationDataObject.SPPR.Spravochnik.Proekty" target="_top" title="/entities/erdiagram/er_format?id=Romashka.ApplicationDataObject.SPPR.Spravochnik.Proekty" xlink:actuate="onRequest" xlink:href="/entities/erdiagram/er_format?id=Romashka.ApplicationDataObject.SPPR.Spravochnik.Proekty" xlink:show="new" xlink:title="/entities/erdiagram/er_format?id=Romashka.ApplicationDataObject.SPPR.Spravochnik.Proekty" xlink:type="simple"><text fill="#0000FF" font-family="sans-serif" font-size="14" lengthAdjust="spacing" text-decoration="underline" textLength="56" x="180.75" y="68.418">&#1055;&#1088;&#1086;&#1077;&#1082;&#1090;&#1099;</text></a><line style="stroke:#181818;stroke-width:0.5;" x1="8" x2="377" y1="78.6211" y2="78.6211"/><text fill="#000000" font-family="sans-serif" font-size="14" lengthAdjust="spacing" textLength="115" x="13" y="97.7285">&#1040;&#1076;&#1088;&#1077;&#1089;Git&#1057;&#1077;&#1088;&#1074;&#1077;&#1088;&#1072;</text><text fill="#000000" font-family="sans-serif" font-size="14" lengthAdjust="spacing" textLength="276" x="13" y="116.3496">&#1042;&#1072;&#1088;&#1080;&#1072;&#1085;&#1090;&#1053;&#1072;&#1087;&#1088;&#1072;&#1074;&#1083;&#1077;&#1085;&#1080;&#1103;&#1054;&#1096;&#1080;&#1073;&#1086;&#1082;&#1053;&#1072;&#1047;&#1072;&#1082;&#1088;&#1099;&#1090;&#1080;&#1077;</text><text fill="#000000" font-family="sans-serif" font-size="14" lengthAdjust="spacing" textLength="274" x="13" y="134.9707">&#1042;&#1072;&#1088;&#1080;&#1072;&#1085;&#1090;&#1053;&#1072;&#1087;&#1088;&#1072;&#1074;&#1083;&#1077;&#1085;&#1080;&#1103;&#1054;&#1096;&#1080;&#1073;&#1086;&#1082;&#1053;&#1072;&#1055;&#1088;&#1086;&#1074;&#1077;&#1088;&#1082;&#1091;</text><text fill="#000000" font-family="sans-serif" font-size="14" lengthAdjust="spacing" textLength="152" x="13" y="153.5918">&#1048;&#1084;&#1103;&#1042;&#1077;&#1090;&#1082;&#1080;&#1056;&#1077;&#1087;&#1086;&#1079;&#1080;&#1090;&#1086;&#1088;&#1080;&#1103;</text><text fill="#000000" font-family="sans-serif" font-size="14" lengthAdjust="spacing" textLength="359" x="13" y="172.2129">&#1048;&#1084;&#1103;&#1055;&#1086;&#1083;&#1100;&#1079;&#1086;&#1074;&#1072;&#1090;&#1077;&#1083;&#1103;&#1061;&#1088;&#1072;&#1085;&#1080;&#1083;&#1080;&#1097;&#1072;&#1044;&#1083;&#1103;&#1047;&#1072;&#1075;&#1088;&#1091;&#1079;&#1082;&#1080;&#1052;&#1077;&#1090;&#1072;&#1076;&#1072;&#1085;&#1085;&#1099;&#1093;</text><text fill="#000000" font-family="sans-serif" font-size="14" lengthAdjust="spacing" textLength="206" x="13" y="190.834">&#1048;&#1084;&#1103;&#1055;&#1088;&#1077;&#1076;&#1086;&#1087;&#1088;&#1077;&#1076;&#1077;&#1083;&#1077;&#1085;&#1085;&#1099;&#1093;&#1044;&#1072;&#1085;&#1085;&#1099;&#1093;</text><text fill="#000000" font-family="sans-serif" font-size="14" lengthAdjust="spacing" textLength="234" x="13" y="209.4551">&#1050;&#1072;&#1090;&#1072;&#1083;&#1086;&#1075;&#1048;&#1041;&#1044;&#1083;&#1103;&#1047;&#1072;&#1075;&#1088;&#1091;&#1079;&#1082;&#1080;&#1052;&#1077;&#1090;&#1072;&#1076;&#1072;&#1085;&#1085;&#1099;&#1093;</text><text fill="#000000" font-family="sans-serif" font-size="14" lengthAdjust="spacing" textLength="290" x="13" y="228.0762">&#1050;&#1072;&#1090;&#1072;&#1083;&#1086;&#1075;&#1061;&#1088;&#1072;&#1085;&#1080;&#1083;&#1080;&#1097;&#1072;&#1044;&#1083;&#1103;&#1047;&#1072;&#1075;&#1088;&#1091;&#1079;&#1082;&#1080;&#1052;&#1077;&#1090;&#1072;&#1076;&#1072;&#1085;&#1085;&#1099;&#1093;</text><text fill="#000000" font-family="sans-serif" font-size="14" lengthAdjust="spacing" textLength="24" x="13" y="246.6973">&#1050;&#1086;&#1076;</text><text fill="#000000" font-family="sans-serif" font-size="14" lengthAdjust="spacing" textLength="98" x="13" y="265.3184">&#1053;&#1072;&#1080;&#1084;&#1077;&#1085;&#1086;&#1074;&#1072;&#1085;&#1080;&#1077;</text><text fill="#000000" font-family="sans-serif" font-size="14" lengthAdjust="spacing" textLength="121" x="13" y="283.9395">&#1055;&#1086;&#1084;&#1077;&#1090;&#1082;&#1072;&#1059;&#1076;&#1072;&#1083;&#1077;&#1085;&#1080;&#1103;</text><text fill="#000000" font-family="sans-serif" font-size="14" lengthAdjust="spacing" textLength="131" x="13" y="302.5605">&#1055;&#1088;&#1077;&#1076;&#1086;&#1087;&#1088;&#1077;&#1076;&#1077;&#1083;&#1077;&#1085;&#1085;&#1099;&#1081;</text><text fill="#000000" font-family="sans-serif" font-size="14" lengthAdjust="spacing" textLength="187" x="13" y="321.1816">&#1055;&#1091;&#1090;&#1100;&#1050;&#1055;&#1088;&#1086;&#1077;&#1082;&#1090;&#1091;&#1042;&#1056;&#1077;&#1087;&#1086;&#1079;&#1080;&#1090;&#1086;&#1088;&#1080;&#1080;</text><text fill="#000000" font-family="sans-serif" font-size="14" lengthAdjust="spacing" textLength="120" x="13" y="339.8027">&#1056;&#1077;&#1078;&#1080;&#1084;&#1056;&#1072;&#1079;&#1088;&#1072;&#1073;&#1086;&#1090;&#1082;&#1080;</text><text fill="#000000" font-family="sans-serif" font-size="14" lengthAdjust="spacing" textLength="262" x="13" y="358.4238">&#1056;&#1077;&#1078;&#1080;&#1084;&#1056;&#1072;&#1079;&#1088;&#1072;&#1073;&#1086;&#1090;&#1082;&#1080;&#1058;&#1077;&#1093;&#1085;&#1080;&#1095;&#1077;&#1089;&#1082;&#1080;&#1093;&#1055;&#1088;&#1086;&#1077;&#1082;&#1090;&#1086;&#1074;</text><text fill="#000000" font-family="sans-serif" font-size="14" lengthAdjust="spacing" textLength="49" x="13" y="377.0449">&#1057;&#1089;&#1099;&#1083;&#1082;&#1072;</text><line style="stroke:#181818;stroke-width:0.5;" x1="8" x2="377" y1="384.5586" y2="384.5586"/></g><!--class Romashka_ApplicationDataObject_SPPR_Spravochnik_Protsessy--><g id="elem_Romashka_ApplicationDataObject_SPPR_Spravochnik_Protsessy"><rect codeLine="36" fill="#F1F1F1" height="252.832" id="Romashka_ApplicationDataObject_SPPR_Spravochnik_Protsessy" rx="2.5" ry="2.5" style="stroke:#181818;stroke-width:0.5;" width="218" x="429.5" y="93.1211"/><ellipse cx="501.25" cy="109.1211" fill="#ADD1B2" rx="11" ry="11" style="stroke:#181818;stroke-width:1.0;"/><path d="M500.1094,109.918 L500.1094,112.418 L504.4375,112.418 L504.4375,111.4961 Q504.4375,110.8867 504.6719,110.6211 Q504.9219,110.3555 505.2969,110.3555 Q505.6719,110.3555 505.9063,110.6211 Q506.1406,110.8867 506.1406,111.4961 L506.1406,114.1211 L498.1406,114.1211 Q497.5156,114.1211 497.25,113.8867 Q497,113.6523 497,113.2617 Q497,112.8867 497.2656,112.6523 Q497.5313,112.418 498.1406,112.418 L498.4063,112.418 L498.4063,105.7617 L498.1406,105.7617 Q497.5156,105.7617 497.25,105.5273 Q497,105.293 497,104.9023 Q497,104.5273 497.25,104.293 Q497.5156,104.0586 498.1406,104.0586 L505.7656,104.0586 L505.7656,106.6523 Q505.7656,107.2617 505.5313,107.5273 Q505.3125,107.7773 504.9219,107.7773 Q504.5469,107.7773 504.3125,107.5273 Q504.0781,107.2617 504.0781,106.6523 L504.0781,105.7617 L500.1094,105.7617 L500.1094,108.2148 L501.5938,108.2148 Q501.5938,107.5586 501.7188,107.3711 Q501.9844,106.9648 502.4531,106.9648 Q502.8281,106.9648 503.0625,107.2305 Q503.2969,107.4805 503.2969,108.0898 L503.2969,110.0586 Q503.2969,110.6055 503.1719,110.793 Q502.9063,111.1836 502.4531,111.1836 Q501.9844,111.1836 501.7188,110.7773 Q501.5938,110.5898 501.5938,109.918 L500.1094,109.918 Z " fill="#000000"/><a href="/entities/erdiagram/er_format?id=Romashka.ApplicationDataObject.SPPR.Spravochnik.Protsessy" target="_top" title="/entities/erdiagram/er_format?id=Romashka.ApplicationDataObject.SPPR.Spravochnik.Protsessy" xlink:actuate="onRequest" xlink:href="/entities/erdiagram/er_format?id=Romashka.ApplicationDataObject.SPPR.Spravochnik.Protsessy" xlink:show="new" xlink:title="/entities/erdiagram/er_format?id=Romashka.ApplicationDataObject.SPPR.Spravochnik.Protsessy" xlink:type="simple"><text fill="#0000FF" font-family="sans-serif" font-size="14" lengthAdjust="spacing" text-decoration="underline" textLength="66" x="521.75" y="114.918">&#1055;&#1088;&#1086;&#1094;&#1077;&#1089;&#1089;&#1099;</text></a><line style="stroke:#181818;stroke-width:0.5;" x1="430.5" x2="646.5" y1="125.1211" y2="125.1211"/><text fill="#000000" font-family="sans-serif" font-size="14" lengthAdjust="spacing" textLength="66" x="435.5" y="144.2285">&#1042;&#1083;&#1072;&#1076;&#1077;&#1083;&#1077;&#1094;</text><text fill="#000000" font-family="sans-serif" font-size="14" lengthAdjust="spacing" textLength="206" x="435.5" y="162.8496">&#1048;&#1084;&#1103;&#1055;&#1088;&#1077;&#1076;&#1086;&#1087;&#1088;&#1077;&#1076;&#1077;&#1083;&#1077;&#1085;&#1085;&#1099;&#1093;&#1044;&#1072;&#1085;&#1085;&#1099;&#1093;</text><text fill="#000000" font-family="sans-serif" font-size="14" lengthAdjust="spacing" textLength="24" x="435.5" y="181.4707">&#1050;&#1086;&#1076;</text><text fill="#000000" font-family="sans-serif" font-size="14" lengthAdjust="spacing" textLength="98" x="435.5" y="200.0918">&#1053;&#1072;&#1080;&#1084;&#1077;&#1085;&#1086;&#1074;&#1072;&#1085;&#1080;&#1077;</text><text fill="#000000" font-family="sans-serif" font-size="14" lengthAdjust="spacing" textLength="121" x="435.5" y="218.7129">&#1055;&#1086;&#1084;&#1077;&#1090;&#1082;&#1072;&#1059;&#1076;&#1072;&#1083;&#1077;&#1085;&#1080;&#1103;</text><text fill="#000000" font-family="sans-serif" font-size="14" lengthAdjust="spacing" textLength="131" x="435.5" y="237.334">&#1055;&#1088;&#1077;&#1076;&#1086;&#1087;&#1088;&#1077;&#1076;&#1077;&#1083;&#1077;&#1085;&#1085;&#1099;&#1081;</text><text fill="#000000" font-family="sans-serif" font-size="14" lengthAdjust="spacing" textLength="160" x="435.5" y="255.9551">&#1056;&#1058;_&#1050;&#1086;&#1076;&#1041;&#1080;&#1079;&#1085;&#1077;&#1089;&#1055;&#1088;&#1086;&#1094;&#1077;&#1089;&#1089;&#1072;</text><text fill="#000000" font-family="sans-serif" font-size="14" lengthAdjust="spacing" textLength="101" x="435.5" y="274.5762">&#1056;&#1072;&#1079;&#1076;&#1077;&#1083;&#1055;&#1088;&#1086;&#1077;&#1082;&#1090;&#1072;</text><text fill="#000000" font-family="sans-serif" font-size="14" lengthAdjust="spacing" textLength="64" x="435.5" y="293.1973">&#1056;&#1086;&#1076;&#1080;&#1090;&#1077;&#1083;&#1100;</text><text fill="#000000" font-family="sans-serif" font-size="14" lengthAdjust="spacing" textLength="49" x="435.5" y="311.8184">&#1057;&#1089;&#1099;&#1083;&#1082;&#1072;</text><text fill="#000000" font-family="sans-serif" font-size="14" lengthAdjust="spacing" textLength="72" x="435.5" y="330.4395">&#1069;&#1090;&#1086;&#1043;&#1088;&#1091;&#1087;&#1087;&#1072;</text><line style="stroke:#181818;stroke-width:0.5;" x1="430.5" x2="646.5" y1="337.9531" y2="337.9531"/></g><!--class Romashka_ApplicationDataObject_SPPR_Spravochnik_RazdelyProekta--><g id="elem_Romashka_ApplicationDataObject_SPPR_Spravochnik_RazdelyProekta"><rect codeLine="50" fill="#F1F1F1" height="215.5898" id="Romashka_ApplicationDataObject_SPPR_Spravochnik_RazdelyProekta" rx="2.5" ry="2.5" style="stroke:#181818;stroke-width:0.5;" width="218" x="698.5" y="111.6211"/><ellipse cx="746.25" cy="127.6211" fill="#ADD1B2" rx="11" ry="11" style="stroke:#181818;stroke-width:1.0;"/><path d="M745.1094,128.418 L745.1094,130.918 L749.4375,130.918 L749.4375,129.9961 Q749.4375,129.3867 749.6719,129.1211 Q749.9219,128.8555 750.2969,128.8555 Q750.6719,128.8555 750.9063,129.1211 Q751.1406,129.3867 751.1406,129.9961 L751.1406,132.6211 L743.1406,132.6211 Q742.5156,132.6211 742.25,132.3867 Q742,132.1523 742,131.7617 Q742,131.3867 742.2656,131.1523 Q742.5313,130.918 743.1406,130.918 L743.4063,130.918 L743.4063,124.2617 L743.1406,124.2617 Q742.5156,124.2617 742.25,124.0273 Q742,123.793 742,123.4023 Q742,123.0273 742.25,122.793 Q742.5156,122.5586 743.1406,122.5586 L750.7656,122.5586 L750.7656,125.1523 Q750.7656,125.7617 750.5313,126.0273 Q750.3125,126.2773 749.9219,126.2773 Q749.5469,126.2773 749.3125,126.0273 Q749.0781,125.7617 749.0781,125.1523 L749.0781,124.2617 L745.1094,124.2617 L745.1094,126.7148 L746.5938,126.7148 Q746.5938,126.0586 746.7188,125.8711 Q746.9844,125.4648 747.4531,125.4648 Q747.8281,125.4648 748.0625,125.7305 Q748.2969,125.9805 748.2969,126.5898 L748.2969,128.5586 Q748.2969,129.1055 748.1719,129.293 Q747.9063,129.6836 747.4531,129.6836 Q746.9844,129.6836 746.7188,129.2773 Q746.5938,129.0898 746.5938,128.418 L745.1094,128.418 Z " fill="#000000"/><a href="/entities/erdiagram/er_format?id=Romashka.ApplicationDataObject.SPPR.Spravochnik.RazdelyProekta" target="_top" title="/entities/erdiagram/er_format?id=Romashka.ApplicationDataObject.SPPR.Spravochnik.RazdelyProekta" xlink:actuate="onRequest" xlink:href="/entities/erdiagram/er_format?id=Romashka.ApplicationDataObject.SPPR.Spravochnik.RazdelyProekta" xlink:show="new" xlink:title="/entities/erdiagram/er_format?id=Romashka.ApplicationDataObject.SPPR.Spravochnik.RazdelyProekta" xlink:type="simple"><text fill="#0000FF" font-family="sans-serif" font-size="14" lengthAdjust="spacing" text-decoration="underline" textLength="114" x="766.75" y="133.418">&#1056;&#1072;&#1079;&#1076;&#1077;&#1083;&#1099; &#1087;&#1088;&#1086;&#1077;&#1082;&#1090;&#1072;</text></a><line style="stroke:#181818;stroke-width:0.5;" x1="699.5" x2="915.5" y1="143.6211" y2="143.6211"/><text fill="#000000" font-family="sans-serif" font-size="14" lengthAdjust="spacing" textLength="66" x="704.5" y="162.7285">&#1042;&#1083;&#1072;&#1076;&#1077;&#1083;&#1077;&#1094;</text><text fill="#000000" font-family="sans-serif" font-size="14" lengthAdjust="spacing" textLength="206" x="704.5" y="181.3496">&#1048;&#1084;&#1103;&#1055;&#1088;&#1077;&#1076;&#1086;&#1087;&#1088;&#1077;&#1076;&#1077;&#1083;&#1077;&#1085;&#1085;&#1099;&#1093;&#1044;&#1072;&#1085;&#1085;&#1099;&#1093;</text><text fill="#000000" font-family="sans-serif" font-size="14" lengthAdjust="spacing" textLength="24" x="704.5" y="199.9707">&#1050;&#1086;&#1076;</text><text fill="#000000" font-family="sans-serif" font-size="14" lengthAdjust="spacing" textLength="98" x="704.5" y="218.5918">&#1053;&#1072;&#1080;&#1084;&#1077;&#1085;&#1086;&#1074;&#1072;&#1085;&#1080;&#1077;</text><text fill="#000000" font-family="sans-serif" font-size="14" lengthAdjust="spacing" textLength="121" x="704.5" y="237.2129">&#1055;&#1086;&#1084;&#1077;&#1090;&#1082;&#1072;&#1059;&#1076;&#1072;&#1083;&#1077;&#1085;&#1080;&#1103;</text><text fill="#000000" font-family="sans-serif" font-size="14" lengthAdjust="spacing" textLength="131" x="704.5" y="255.834">&#1055;&#1088;&#1077;&#1076;&#1086;&#1087;&#1088;&#1077;&#1076;&#1077;&#1083;&#1077;&#1085;&#1085;&#1099;&#1081;</text><text fill="#000000" font-family="sans-serif" font-size="14" lengthAdjust="spacing" textLength="64" x="704.5" y="274.4551">&#1056;&#1086;&#1076;&#1080;&#1090;&#1077;&#1083;&#1100;</text><text fill="#000000" font-family="sans-serif" font-size="14" lengthAdjust="spacing" textLength="49" x="704.5" y="293.0762">&#1057;&#1089;&#1099;&#1083;&#1082;&#1072;</text><text fill="#000000" font-family="sans-serif" font-size="14" lengthAdjust="spacing" textLength="72" x="704.5" y="311.6973">&#1069;&#1090;&#1086;&#1043;&#1088;&#1091;&#1087;&#1087;&#1072;</text><line style="stroke:#181818;stroke-width:0.5;" x1="699.5" x2="915.5" y1="319.2109" y2="319.2109"/></g><!--class Romashka_ApplicationDataObject_SPPR_RegistrSvedeniy_NaboryZnacheniyDostupa--><g id="elem_Romashka_ApplicationDataObject_SPPR_RegistrSvedeniy_NaboryZnacheniyDostupa"><rect codeLine="62" fill="#F1F1F1" height="66.6211" id="Romashka_ApplicationDataObject_SPPR_RegistrSvedeniy_NaboryZnacheniyDostupa" rx="2.5" ry="2.5" style="stroke:#181818;stroke-width:0.5;" width="205" x="34" y="752.1211"/><ellipse cx="49" cy="768.1211" fill="#ADD1B2" rx="11" ry="11" style="stroke:#181818;stroke-width:1.0;"/><path d="M47.8594,768.918 L47.8594,771.418 L52.1875,771.418 L52.1875,770.4961 Q52.1875,769.8867 52.4219,769.6211 Q52.6719,769.3555 53.0469,769.3555 Q53.4219,769.3555 53.6563,769.6211 Q53.8906,769.8867 53.8906,770.4961 L53.8906,773.1211 L45.8906,773.1211 Q45.2656,773.1211 45,772.8867 Q44.75,772.6523 44.75,772.2617 Q44.75,771.8867 45.0156,771.6523 Q45.2813,771.418 45.8906,771.418 L46.1563,771.418 L46.1563,764.7617 L45.8906,764.7617 Q45.2656,764.7617 45,764.5273 Q44.75,764.293 44.75,763.9023 Q44.75,763.5273 45,763.293 Q45.2656,763.0586 45.8906,763.0586 L53.5156,763.0586 L53.5156,765.6523 Q53.5156,766.2617 53.2813,766.5273 Q53.0625,766.7773 52.6719,766.7773 Q52.2969,766.7773 52.0625,766.5273 Q51.8281,766.2617 51.8281,765.6523 L51.8281,764.7617 L47.8594,764.7617 L47.8594,767.2148 L49.3438,767.2148 Q49.3438,766.5586 49.4688,766.3711 Q49.7344,765.9648 50.2031,765.9648 Q50.5781,765.9648 50.8125,766.2305 Q51.0469,766.4805 51.0469,767.0898 L51.0469,769.0586 Q51.0469,769.6055 50.9219,769.793 Q50.6563,770.1836 50.2031,770.1836 Q49.7344,770.1836 49.4688,769.7773 Q49.3438,769.5898 49.3438,768.918 L47.8594,768.918 Z " fill="#000000"/><a href="/entities/erdiagram/er_format?id=Romashka.ApplicationDataObject.SPPR.RegistrSvedeniy.NaboryZnacheniyDostupa" target="_top" title="/entities/erdiagram/er_format?id=Romashka.ApplicationDataObject.SPPR.RegistrSvedeniy.NaboryZnacheniyDostupa" xlink:actuate="onRequest" xlink:href="/entities/erdiagram/er_format?id=Romashka.ApplicationDataObject.SPPR.RegistrSvedeniy.NaboryZnacheniyDostupa" xlink:show="new" xlink:title="/entities/erdiagram/er_format?id=Romashka.ApplicationDataObject.SPPR.RegistrSvedeniy.NaboryZnacheniyDostupa" xlink:type="simple"><text fill="#0000FF" font-family="sans-serif" font-size="14" lengthAdjust="spacing" text-decoration="underline" textLength="173" x="63" y="773.918">&#1053;&#1072;&#1073;&#1086;&#1088;&#1099; &#1079;&#1085;&#1072;&#1095;&#1077;&#1085;&#1080;&#1081; &#1076;&#1086;&#1089;&#1090;&#1091;&#1087;&#1072;</text></a><line style="stroke:#181818;stroke-width:0.5;" x1="35" x2="238" y1="784.1211" y2="784.1211"/><text fill="#000000" font-family="sans-serif" font-size="14" lengthAdjust="spacing" textLength="49" x="40" y="803.2285">&#1054;&#1073;&#1098;&#1077;&#1082;&#1090;</text><line style="stroke:#181818;stroke-width:0.5;" x1="35" x2="238" y1="810.7422" y2="810.7422"/></g><!--class Romashka_ApplicationDataObject_SPPR_RegistrSvedeniy_NastroykiOchistkiFaylov--><g id="elem_Romashka_ApplicationDataObject_SPPR_RegistrSvedeniy_NastroykiOchistkiFaylov"><rect codeLine="66" fill="#F1F1F1" height="66.6211" id="Romashka_ApplicationDataObject_SPPR_RegistrSvedeniy_NastroykiOchistkiFaylov" rx="2.5" ry="2.5" style="stroke:#181818;stroke-width:0.5;" width="210" x="290.5" y="752.1211"/><ellipse cx="305.5" cy="768.1211" fill="#ADD1B2" rx="11" ry="11" style="stroke:#181818;stroke-width:1.0;"/><path d="M304.3594,768.918 L304.3594,771.418 L308.6875,771.418 L308.6875,770.4961 Q308.6875,769.8867 308.9219,769.6211 Q309.1719,769.3555 309.5469,769.3555 Q309.9219,769.3555 310.1563,769.6211 Q310.3906,769.8867 310.3906,770.4961 L310.3906,773.1211 L302.3906,773.1211 Q301.7656,773.1211 301.5,772.8867 Q301.25,772.6523 301.25,772.2617 Q301.25,771.8867 301.5156,771.6523 Q301.7813,771.418 302.3906,771.418 L302.6563,771.418 L302.6563,764.7617 L302.3906,764.7617 Q301.7656,764.7617 301.5,764.5273 Q301.25,764.293 301.25,763.9023 Q301.25,763.5273 301.5,763.293 Q301.7656,763.0586 302.3906,763.0586 L310.0156,763.0586 L310.0156,765.6523 Q310.0156,766.2617 309.7813,766.5273 Q309.5625,766.7773 309.1719,766.7773 Q308.7969,766.7773 308.5625,766.5273 Q308.3281,766.2617 308.3281,765.6523 L308.3281,764.7617 L304.3594,764.7617 L304.3594,767.2148 L305.8438,767.2148 Q305.8438,766.5586 305.9688,766.3711 Q306.2344,765.9648 306.7031,765.9648 Q307.0781,765.9648 307.3125,766.2305 Q307.5469,766.4805 307.5469,767.0898 L307.5469,769.0586 Q307.5469,769.6055 307.4219,769.793 Q307.1563,770.1836 306.7031,770.1836 Q306.2344,770.1836 305.9688,769.7773 Q305.8438,769.5898 305.8438,768.918 L304.3594,768.918 Z " fill="#000000"/><a href="/entities/erdiagram/er_format?id=Romashka.ApplicationDataObject.SPPR.RegistrSvedeniy.NastroykiOchistkiFaylov" target="_top" title="/entities/erdiagram/er_format?id=Romashka.ApplicationDataObject.SPPR.RegistrSvedeniy.NastroykiOchistkiFaylov" xlink:actuate="onRequest" xlink:href="/entities/erdiagram/er_format?id=Romashka.ApplicationDataObject.SPPR.RegistrSvedeniy.NastroykiOchistkiFaylov" xlink:show="new" xlink:title="/entities/erdiagram/er_format?id=Romashka.ApplicationDataObject.SPPR.RegistrSvedeniy.NastroykiOchistkiFaylov" xlink:type="simple"><text fill="#0000FF" font-family="sans-serif" font-size="14" lengthAdjust="spacing" text-decoration="underline" textLength="178" x="319.5" y="773.918">&#1053;&#1072;&#1089;&#1090;&#1088;&#1086;&#1081;&#1082;&#1080; &#1086;&#1095;&#1080;&#1089;&#1090;&#1082;&#1080; &#1092;&#1072;&#1081;&#1083;&#1086;&#1074;</text></a><line style="stroke:#181818;stroke-width:0.5;" x1="291.5" x2="499.5" y1="784.1211" y2="784.1211"/><text fill="#000000" font-family="sans-serif" font-size="14" lengthAdjust="spacing" textLength="109" x="296.5" y="803.2285">&#1042;&#1083;&#1072;&#1076;&#1077;&#1083;&#1077;&#1094;&#1060;&#1072;&#1081;&#1083;&#1072;</text><line style="stroke:#181818;stroke-width:0.5;" x1="291.5" x2="499.5" y1="810.7422" y2="810.7422"/></g><!--class Romashka_ApplicationDataObject_SPPR_RegistrSvedeniy_NastroykiSinkhronizatsiiFaylov--><g id="elem_Romashka_ApplicationDataObject_SPPR_RegistrSvedeniy_NastroykiSinkhronizatsiiFaylov"><rect codeLine="70" fill="#F1F1F1" height="85.2422" id="Romashka_ApplicationDataObject_SPPR_RegistrSvedeniy_NastroykiSinkhronizatsiiFaylov" rx="2.5" ry="2.5" style="stroke:#181818;stroke-width:0.5;" width="259" x="552" y="742.6211"/><ellipse cx="567" cy="758.6211" fill="#ADD1B2" rx="11" ry="11" style="stroke:#181818;stroke-width:1.0;"/><path d="M565.8594,759.418 L565.8594,761.918 L570.1875,761.918 L570.1875,760.9961 Q570.1875,760.3867 570.4219,760.1211 Q570.6719,759.8555 571.0469,759.8555 Q571.4219,759.8555 571.6563,760.1211 Q571.8906,760.3867 571.8906,760.9961 L571.8906,763.6211 L563.8906,763.6211 Q563.2656,763.6211 563,763.3867 Q562.75,763.1523 562.75,762.7617 Q562.75,762.3867 563.0156,762.1523 Q563.2813,761.918 563.8906,761.918 L564.1563,761.918 L564.1563,755.2617 L563.8906,755.2617 Q563.2656,755.2617 563,755.0273 Q562.75,754.793 562.75,754.4023 Q562.75,754.0273 563,753.793 Q563.2656,753.5586 563.8906,753.5586 L571.5156,753.5586 L571.5156,756.1523 Q571.5156,756.7617 571.2813,757.0273 Q571.0625,757.2773 570.6719,757.2773 Q570.2969,757.2773 570.0625,757.0273 Q569.8281,756.7617 569.8281,756.1523 L569.8281,755.2617 L565.8594,755.2617 L565.8594,757.7148 L567.3438,757.7148 Q567.3438,757.0586 567.4688,756.8711 Q567.7344,756.4648 568.2031,756.4648 Q568.5781,756.4648 568.8125,756.7305 Q569.0469,756.9805 569.0469,757.5898 L569.0469,759.5586 Q569.0469,760.1055 568.9219,760.293 Q568.6563,760.6836 568.2031,760.6836 Q567.7344,760.6836 567.4688,760.2773 Q567.3438,760.0898 567.3438,759.418 L565.8594,759.418 Z " fill="#000000"/><a href="/entities/erdiagram/er_format?id=Romashka.ApplicationDataObject.SPPR.RegistrSvedeniy.NastroykiSinkhronizatsiiFaylov" target="_top" title="/entities/erdiagram/er_format?id=Romashka.ApplicationDataObject.SPPR.RegistrSvedeniy.NastroykiSinkhronizatsiiFaylov" xlink:actuate="onRequest" xlink:href="/entities/erdiagram/er_format?id=Romashka.ApplicationDataObject.SPPR.RegistrSvedeniy.NastroykiSinkhronizatsiiFaylov" xlink:show="new" xlink:title="/entities/erdiagram/er_format?id=Romashka.ApplicationDataObject.SPPR.RegistrSvedeniy.NastroykiSinkhronizatsiiFaylov" xlink:type="simple"><text fill="#0000FF" font-family="sans-serif" font-size="14" lengthAdjust="spacing" text-decoration="underline" textLength="227" x="581" y="764.418">&#1053;&#1072;&#1089;&#1090;&#1088;&#1086;&#1081;&#1082;&#1080; &#1089;&#1080;&#1085;&#1093;&#1088;&#1086;&#1085;&#1080;&#1079;&#1072;&#1094;&#1080;&#1080; &#1092;&#1072;&#1081;&#1083;&#1086;&#1074;</text></a><line style="stroke:#181818;stroke-width:0.5;" x1="553" x2="810" y1="774.6211" y2="774.6211"/><text fill="#000000" font-family="sans-serif" font-size="14" lengthAdjust="spacing" textLength="109" x="558" y="793.7285">&#1042;&#1083;&#1072;&#1076;&#1077;&#1083;&#1077;&#1094;&#1060;&#1072;&#1081;&#1083;&#1072;</text><text fill="#000000" font-family="sans-serif" font-size="14" lengthAdjust="spacing" textLength="102" x="558" y="812.3496">&#1059;&#1095;&#1077;&#1090;&#1085;&#1072;&#1103;&#1047;&#1072;&#1087;&#1080;&#1089;&#1100;</text><line style="stroke:#181818;stroke-width:0.5;" x1="553" x2="810" y1="819.8633" y2="819.8633"/></g><!--class Romashka_ApplicationDataObject_SPPR_RegistrSvedeniy_rtSoglasovanieObektov--><g id="elem_Romashka_ApplicationDataObject_SPPR_RegistrSvedeniy_rtSoglasovanieObektov"><rect codeLine="75" fill="#F1F1F1" height="85.2422" id="Romashka_ApplicationDataObject_SPPR_RegistrSvedeniy_rtSoglasovanieObektov" rx="2.5" ry="2.5" style="stroke:#181818;stroke-width:0.5;" width="190" x="862.5" y="742.6211"/><ellipse cx="877.5" cy="758.6211" fill="#ADD1B2" rx="11" ry="11" style="stroke:#181818;stroke-width:1.0;"/><path d="M876.3594,759.418 L876.3594,761.918 L880.6875,761.918 L880.6875,760.9961 Q880.6875,760.3867 880.9219,760.1211 Q881.1719,759.8555 881.5469,759.8555 Q881.9219,759.8555 882.1563,760.1211 Q882.3906,760.3867 882.3906,760.9961 L882.3906,763.6211 L874.3906,763.6211 Q873.7656,763.6211 873.5,763.3867 Q873.25,763.1523 873.25,762.7617 Q873.25,762.3867 873.5156,762.1523 Q873.7813,761.918 874.3906,761.918 L874.6563,761.918 L874.6563,755.2617 L874.3906,755.2617 Q873.7656,755.2617 873.5,755.0273 Q873.25,754.793 873.25,754.4023 Q873.25,754.0273 873.5,753.793 Q873.7656,753.5586 874.3906,753.5586 L882.0156,753.5586 L882.0156,756.1523 Q882.0156,756.7617 881.7813,757.0273 Q881.5625,757.2773 881.1719,757.2773 Q880.7969,757.2773 880.5625,757.0273 Q880.3281,756.7617 880.3281,756.1523 L880.3281,755.2617 L876.3594,755.2617 L876.3594,757.7148 L877.8438,757.7148 Q877.8438,757.0586 877.9688,756.8711 Q878.2344,756.4648 878.7031,756.4648 Q879.0781,756.4648 879.3125,756.7305 Q879.5469,756.9805 879.5469,757.5898 L879.5469,759.5586 Q879.5469,760.1055 879.4219,760.293 Q879.1563,760.6836 878.7031,760.6836 Q878.2344,760.6836 877.9688,760.2773 Q877.8438,760.0898 877.8438,759.418 L876.3594,759.418 Z " fill="#000000"/><a href="/entities/erdiagram/er_format?id=Romashka.ApplicationDataObject.SPPR.RegistrSvedeniy.rtSoglasovanieObektov" target="_top" title="/entities/erdiagram/er_format?id=Romashka.ApplicationDataObject.SPPR.RegistrSvedeniy.rtSoglasovanieObektov" xlink:actuate="onRequest" xlink:href="/entities/erdiagram/er_format?id=Romashka.ApplicationDataObject.SPPR.RegistrSvedeniy.rtSoglasovanieObektov" xlink:show="new" xlink:title="/entities/erdiagram/er_format?id=Romashka.ApplicationDataObject.SPPR.RegistrSvedeniy.rtSoglasovanieObektov" xlink:type="simple"><text fill="#0000FF" font-family="sans-serif" font-size="14" lengthAdjust="spacing" text-decoration="underline" textLength="158" x="891.5" y="764.418">&#1057;&#1086;&#1075;&#1083;&#1072;&#1089;&#1086;&#1074;&#1072;&#1085;&#1080;&#1077; &#1086;&#1073;&#1098;&#1077;&#1082;&#1090;&#1086;&#1074;</text></a><line style="stroke:#181818;stroke-width:0.5;" x1="863.5" x2="1051.5" y1="774.6211" y2="774.6211"/><text fill="#000000" font-family="sans-serif" font-size="14" lengthAdjust="spacing" textLength="138" x="868.5" y="793.7285">&#1057;&#1086;&#1075;&#1083;&#1072;&#1089;&#1091;&#1077;&#1084;&#1099;&#1081;&#1054;&#1073;&#1098;&#1077;&#1082;&#1090;</text><text fill="#000000" font-family="sans-serif" font-size="14" lengthAdjust="spacing" textLength="49" x="868.5" y="812.3496">&#1055;&#1077;&#1088;&#1080;&#1086;&#1076;</text><line style="stroke:#181818;stroke-width:0.5;" x1="863.5" x2="1051.5" y1="819.8633" y2="819.8633"/></g><!--link Romashka_ApplicationDataObject_SPPR_Spravochnik_Proekty to Romashka_ApplicationDataObject_SPPR_Dokument_rtGruppirovkaProektnykhZadach--><g id="link_Romashka_ApplicationDataObject_SPPR_Spravochnik_Proekty_Romashka_ApplicationDataObject_SPPR_Dokument_rtGruppirovkaProektnykhZadach"><path codeLine="81" d="M387.43,373.3711 C421.93,395.4711 380.09,573.6711 414.55,595.8511 " fill="none" id="Romashka_ApplicationDataObject_SPPR_Spravochnik_Proekty-Romashka_ApplicationDataObject_SPPR_Dokument_rtGruppirovkaProektnykhZadach" style="stroke:#181818;stroke-width:1.0;"/><line style="stroke:#181818;stroke-width:1.0;" x1="387.196" x2="377.8616" y1="373.3057" y2="376.8931"/><line style="stroke:#181818;stroke-width:1.0;" x1="387.196" x2="381.1384" y1="373.3057" y2="365.3491"/><line style="stroke:#181818;stroke-width:1.0;" x1="387.196" x2="379.5" y1="373.3057" y2="371.1211"/><line style="stroke:#181818;stroke-width:1.0;" x1="388.0277" x2="390.2122" y1="377.6998" y2="370.0038"/><line style="stroke:#181818;stroke-width:1.0;" x1="419.7467" x2="417.5584" y1="593.1795" y2="600.8744"/><line style="stroke:#181818;stroke-width:1.0;" x1="416.8611" x2="414.6728" y1="592.3589" y2="600.0538"/><line style="stroke:#181818;stroke-width:1.0;" x1="414.8051" x2="422.5" y1="595.9328" y2="598.1211"/></g><!--link Romashka_ApplicationDataObject_SPPR_Spravochnik_Protsessy to Romashka_ApplicationDataObject_SPPR_Dokument_rtGruppirovkaProektnykhZadach--><g id="link_Romashka_ApplicationDataObject_SPPR_Spravochnik_Protsessy_Romashka_ApplicationDataObject_SPPR_Dokument_rtGruppirovkaProektnykhZadach"><path codeLine="82" d="M652.79,311.9011 C665.3,352.9411 669.46,567.6211 658.57,609.1611 " fill="none" id="Romashka_ApplicationDataObject_SPPR_Spravochnik_Protsessy-Romashka_ApplicationDataObject_SPPR_Dokument_rtGruppirovkaProektnykhZadach" style="stroke:#181818;stroke-width:1.0;"/><line style="stroke:#181818;stroke-width:1.0;" x1="652.7746" x2="643.4283" y1="311.8833" y2="308.3271"/><line style="stroke:#181818;stroke-width:1.0;" x1="652.7746" x2="653.5717" y1="311.8833" y2="301.9151"/><line style="stroke:#181818;stroke-width:1.0;" x1="652.7746" x2="648.5" y1="311.8833" y2="305.1211"/><line style="stroke:#181818;stroke-width:1.0;" x1="650.4622" x2="657.2244" y1="315.7112" y2="311.4365"/><line style="stroke:#181818;stroke-width:1.0;" x1="659.9721" x2="653.066" y1="614.6871" y2="610.649"/><line style="stroke:#181818;stroke-width:1.0;" x1="661.4863" x2="654.5803" y1="612.0973" y2="608.0592"/><line style="stroke:#181818;stroke-width:1.0;" x1="658.5381" x2="654.5" y1="609.215" y2="616.1211"/></g><!--link Romashka_ApplicationDataObject_SPPR_Spravochnik_RazdelyProekta to Romashka_ApplicationDataObject_SPPR_Dokument_rtGruppirovkaProektnykhZadach--><g id="link_Romashka_ApplicationDataObject_SPPR_Spravochnik_RazdelyProekta_Romashka_ApplicationDataObject_SPPR_Dokument_rtGruppirovkaProektnykhZadach"><path codeLine="83" d="M690.67,291.5211 C664.81,328.9711 687.21,593.7711 661.26,630.8211 " fill="none" id="Romashka_ApplicationDataObject_SPPR_Spravochnik_RazdelyProekta-Romashka_ApplicationDataObject_SPPR_Dokument_rtGruppirovkaProektnykhZadach" style="stroke:#181818;stroke-width:1.0;"/><line style="stroke:#181818;stroke-width:1.0;" x1="690.772" x2="694.2538" y1="291.4493" y2="282.0751"/><line style="stroke:#181818;stroke-width:1.0;" x1="690.772" x2="700.7462" y1="291.4493" y2="292.1671"/><line style="stroke:#181818;stroke-width:1.0;" x1="690.772" x2="697.5" y1="291.4493" y2="287.1211"/><line style="stroke:#181818;stroke-width:1.0;" x1="686.9258" x2="691.2541" y1="289.1674" y2="295.8954"/><line style="stroke:#181818;stroke-width:1.0;" x1="660.0203" x2="655.7355" y1="636.3566" y2="629.6008"/><line style="stroke:#181818;stroke-width:1.0;" x1="662.5537" x2="658.2689" y1="634.7497" y2="627.994"/><line style="stroke:#181818;stroke-width:1.0;" x1="661.2558" x2="654.5" y1="630.8363" y2="635.1211"/></g><!--link Romashka_ApplicationDataObject_SPPR_Dokument_rtGruppirovkaProektnykhZadach to Romashka_ApplicationDataObject_SPPR_RegistrSvedeniy_NaboryZnacheniyDostupa--><g id="link_Romashka_ApplicationDataObject_SPPR_Dokument_rtGruppirovkaProektnykhZadach_Romashka_ApplicationDataObject_SPPR_RegistrSvedeniy_NaboryZnacheniyDostupa"><path codeLine="84" d="M414.28,653.2211 C340.88,655.0011 315.99,681.3211 264.5,738.6211 C247.92,757.0711 263.81,788.5411 248.43,795.6611 " fill="none" id="Romashka_ApplicationDataObject_SPPR_Dokument_rtGruppirovkaProektnykhZadach-Romashka_ApplicationDataObject_SPPR_RegistrSvedeniy_NaboryZnacheniyDostupa" style="stroke:#181818;stroke-width:1.0;"/><line style="stroke:#181818;stroke-width:1.0;" x1="414.5005" x2="422.4357" y1="653.2068" y2="647.1214"/><line style="stroke:#181818;stroke-width:1.0;" x1="414.5005" x2="422.5643" y1="653.2068" y2="659.1207"/><line style="stroke:#181818;stroke-width:1.0;" x1="414.5005" x2="422.5" y1="653.2068" y2="653.1211"/><line style="stroke:#181818;stroke-width:1.0;" x1="412.4577" x2="412.5434" y1="649.2285" y2="657.228"/><line style="stroke:#181818;stroke-width:1.0;" x1="245.1623" x2="243.7036" y1="800.3247" y2="792.4588"/><line style="stroke:#181818;stroke-width:1.0;" x1="248.112" x2="246.6533" y1="799.7776" y2="791.9117"/><line style="stroke:#181818;stroke-width:1.0;" x1="248.3659" x2="240.5" y1="795.6623" y2="797.1211"/></g><!--link Romashka_ApplicationDataObject_SPPR_Dokument_rtGruppirovkaProektnykhZadach to Romashka_ApplicationDataObject_SPPR_RegistrSvedeniy_NastroykiOchistkiFaylov--><g id="link_Romashka_ApplicationDataObject_SPPR_Dokument_rtGruppirovkaProektnykhZadach_Romashka_ApplicationDataObject_SPPR_RegistrSvedeniy_NastroykiOchistkiFaylov"><path codeLine="85" d="M416.56,658.8911 C416.63,664.2611 420.57,672.3611 423.5,678.6211 C443.05,720.3711 481.35,706.1911 500.5,748.1211 C508.14,764.8411 519.11,788.2311 509.26,795.1311 " fill="none" id="Romashka_ApplicationDataObject_SPPR_Dokument_rtGruppirovkaProektnykhZadach-Romashka_ApplicationDataObject_SPPR_RegistrSvedeniy_NastroykiOchistkiFaylov" style="stroke:#181818;stroke-width:1.0;"/><line style="stroke:#181818;stroke-width:1.0;" x1="416.765" x2="418.3168" y1="658.6987" y2="648.8199"/><line style="stroke:#181818;stroke-width:1.0;" x1="416.765" x2="426.6832" y1="658.6987" y2="657.4223"/><line style="stroke:#181818;stroke-width:1.0;" x1="416.765" x2="422.5" y1="658.6987" y2="653.1211"/><line style="stroke:#181818;stroke-width:1.0;" x1="412.5425" x2="418.1201" y1="657.2257" y2="662.9606"/><line style="stroke:#181818;stroke-width:1.0;" x1="506.3683" x2="504.3809" y1="800.002" y2="792.2528"/><line style="stroke:#181818;stroke-width:1.0;" x1="509.2742" x2="507.2869" y1="799.2568" y2="791.5076"/><line style="stroke:#181818;stroke-width:1.0;" x1="509.2492" x2="501.5" y1="795.1337" y2="797.1211"/></g><!--link Romashka_ApplicationDataObject_SPPR_Dokument_rtGruppirovkaProektnykhZadach to Romashka_ApplicationDataObject_SPPR_RegistrSvedeniy_NastroykiSinkhronizatsiiFaylov--><g id="link_Romashka_ApplicationDataObject_SPPR_Dokument_rtGruppirovkaProektnykhZadach_Romashka_ApplicationDataObject_SPPR_RegistrSvedeniy_NastroykiSinkhronizatsiiFaylov"><path codeLine="86" d="M660.7,658.6211 C661.04,664.0911 657.13,672.5311 653.5,678.6211 C626.79,723.4811 578.78,693.5011 552.5,738.6211 C543.15,754.6611 533.2,778.8711 543.54,786.0511 " fill="none" id="Romashka_ApplicationDataObject_SPPR_Dokument_rtGruppirovkaProektnykhZadach-Romashka_ApplicationDataObject_SPPR_RegistrSvedeniy_NastroykiSinkhronizatsiiFaylov" style="stroke:#181818;stroke-width:1.0;"/><line style="stroke:#181818;stroke-width:1.0;" x1="660.4895" x2="650.5225" y1="658.4245" y2="657.6132"/><line style="stroke:#181818;stroke-width:1.0;" x1="660.4895" x2="658.4775" y1="658.4245" y2="648.629"/><line style="stroke:#181818;stroke-width:1.0;" x1="660.4895" x2="654.5" y1="658.4245" y2="653.1211"/><line style="stroke:#181818;stroke-width:1.0;" x1="659.3352" x2="664.6386" y1="662.7451" y2="656.7555"/><line style="stroke:#181818;stroke-width:1.0;" x1="548.6359" x2="546.6218" y1="783.2429" y2="790.9852"/><line style="stroke:#181818;stroke-width:1.0;" x1="545.7326" x2="543.7184" y1="782.4876" y2="790.2299"/><line style="stroke:#181818;stroke-width:1.0;" x1="543.7577" x2="551.5" y1="786.107" y2="788.1211"/></g><!--link Romashka_ApplicationDataObject_SPPR_Dokument_rtGruppirovkaProektnykhZadach to Romashka_ApplicationDataObject_SPPR_RegistrSvedeniy_rtSoglasovanieObektov--><g id="link_Romashka_ApplicationDataObject_SPPR_Dokument_rtGruppirovkaProektnykhZadach_Romashka_ApplicationDataObject_SPPR_RegistrSvedeniy_rtSoglasovanieObektov"><path codeLine="87" d="M662.7,653.1911 C745.69,654.6111 774.41,678.2811 836.5,738.6211 C851.69,753.3811 841.03,779.3311 853.38,786.3311 " fill="none" id="Romashka_ApplicationDataObject_SPPR_Dokument_rtGruppirovkaProektnykhZadach-Romashka_ApplicationDataObject_SPPR_RegistrSvedeniy_rtSoglasovanieObektov" style="stroke:#181818;stroke-width:1.0;"/><line style="stroke:#181818;stroke-width:1.0;" x1="662.4998" x2="654.4571" y1="653.1782" y2="659.1209"/><line style="stroke:#181818;stroke-width:1.0;" x1="662.4998" x2="654.5429" y1="653.1782" y2="647.1212"/><line style="stroke:#181818;stroke-width:1.0;" x1="662.4998" x2="654.5" y1="653.1782" y2="653.1211"/><line style="stroke:#181818;stroke-width:1.0;" x1="664.4712" x2="664.5283" y1="657.1924" y2="649.1926"/><line style="stroke:#181818;stroke-width:1.0;" x1="858.45" x2="856.7358" y1="783.3569" y2="791.171"/><line style="stroke:#181818;stroke-width:1.0;" x1="855.5197" x2="853.8055" y1="782.714" y2="790.5282"/><line style="stroke:#181818;stroke-width:1.0;" x1="853.6858" x2="861.5" y1="786.4068" y2="788.1211"/></g><!--SRC=[xLZ1Rjj64BtxAuXSUefo3r0K1OpcLXlMBK4Wh2NMsb8c1P8MmDG6RBcEsyf0spH0Yw1nxQGz5c0SiwObI_w5tJ_gso6TaD9IYIL5TO3Ai2HoPsVUl7qpkzGddiNj9dFPkj7Wjka7JTDmNB_kB2put6-OXlX5RijTSOc_M6wBWJWHNH4Quf8k8j6LRT6N7RbdY3CHYbCHols51GClquQ7mBZruC4T-ifDxuxfrZXRGpHygtpbkElC_upNFbrnrfbNjrZfysQpmQlCvuwzo7osjFgrMVLBvUNbbTAYOssimr79zU-v6yqcTvsMnPPTnxHyEx3gzrcDLUiJuNtuy9R1FECAHKMBeg9GLAvGLCQYeFo_eVViIpmHCI8U0bi4EA5yZEjurEmfXjeY71ruZXGkrDpHeJ_IeRPALxnKYOaUyks3XXyrvYat4GnXL6H0V1KC0dqaT-JEwF0HOf-HurxMZowZOtZemAoR3cvz2EcKcovhETMwpQrIibH1Ba7PkOO2CiuggREYvVv9d288IBh7VN5CQtwIhBnE6Y46OZ3N1rFFyQaK6sB2crKKX_8xMBm2x2vP_8h_BkJUmOnOHBDn-aOP-EpAtL6dluaBJ7kIQYt6QaSGz00h7kFEG0NKAIwPfcJQamSmLZ6Kp24ItF-BS04HaCNoUtn_IlTLYg-feiyesEyKbkeMrbJ8XQ4Kzp0SKD9HgiVeQfggic8Npv8In8I1U0s7Fq-39-zifga-WyjJNQC8uU62iYMYALuqaxPHoAaurqtOHNqT06UstdOX7uriTBrGcVr3kL1N8UuWraHxrpGNBv3f7kMshyfItSDrjaM1h9lHf7pFzBnWgDLEqwWIXyKxKu-aHiif7t-WchhPMZqIBoe9I9Hx367sIIIv5T2rxcjiTqVaFKxRti6xfPOR_9i4-lQ0CoSrhh17DRCH99iTo-KhE_cJLJYXFlCX_XVfE95-90fQCTUuvxlbbbapRHwKlcIhZXlSjt4yLjUBZkTlD5d2hEhGsqfBgkP2rPo9tdD3CODysWJtEk8QYbxHHoyIsg5u9N_877xdH12kdC3YIzKw1Yp-1GiQJeiO8WvKcPshFSi0AVlGm4wohHdoMt1uJiUBawauqW9upseKVwOWml-0iZAthRhhsFmHypq-XZbqy1YbjKUt-jJbqyUmcREenJGPcJdJbtHuQLEb9AV6IzB2mVnuT_soizPWdjDYDZUNLj6q5Tt7TBxjATApJH9oVLjFKxAhZLn4QWOF6aY4pG4jTQIuXzftH2VHgqrWA_ajOy87mxjti-tOsDgyVNjpSuQ_Cy3_y7Fwn2V3UM7D_MmmtJbX3f37d-rc6ch2LDvlfuF_OTtVJF3QBGW1nZV86vsBTYFuA5FITb_b_bsDzby0]--></g></svg>