<?xml version="1.0" encoding="us-ascii" standalone="no"?><svg xmlns="http://www.w3.org/2000/svg" xmlns:xlink="http://www.w3.org/1999/xlink" contentStyleType="text/css" height="820px" preserveAspectRatio="none" style="width:1019px;height:820px;background:#FFFFFF;" version="1.1" viewBox="0 0 1019 820" width="1019px" zoomAndPan="magnify"><defs/><g><text fill="#000000" font-family="sans-serif" font-size="14" font-weight="bold" lengthAdjust="spacing" textLength="215" x="395.25" y="25.1074">&#1043;&#1088;&#1091;&#1087;&#1087;&#1080;&#1088;&#1086;&#1074;&#1082;&#1072; &#1087;&#1088;&#1086;&#1077;&#1082;&#1090;&#1085;&#1099;&#1093; &#1079;&#1072;&#1076;&#1072;&#1095;</text><!--class Romashka_ApplicationDataObject_SPPR_Dokument_rtGruppirovkaProektnykhZadach--><g id="elem_Romashka_ApplicationDataObject_SPPR_Dokument_rtGruppirovkaProektnykhZadach"><rect codeLine="5" fill="#F1F1F1" height="215.5898" id="Romashka_ApplicationDataObject_SPPR_Dokument_rtGruppirovkaProektnykhZadach" rx="2.5" ry="2.5" style="stroke:#181818;stroke-width:0.5;" width="230" x="407.5" y="452.6211"/><ellipse cx="422.5" cy="468.6211" fill="#ADD1B2" rx="11" ry="11" style="stroke:#181818;stroke-width:1.0;"/><path d="M421.3594,469.418 L421.3594,471.918 L425.6875,471.918 L425.6875,470.9961 Q425.6875,470.3867 425.9219,470.1211 Q426.1719,469.8555 426.5469,469.8555 Q426.9219,469.8555 427.1563,470.1211 Q427.3906,470.3867 427.3906,470.9961 L427.3906,473.6211 L419.3906,473.6211 Q418.7656,473.6211 418.5,473.3867 Q418.25,473.1523 418.25,472.7617 Q418.25,472.3867 418.5156,472.1523 Q418.7813,471.918 419.3906,471.918 L419.6563,471.918 L419.6563,465.2617 L419.3906,465.2617 Q418.7656,465.2617 418.5,465.0273 Q418.25,464.793 418.25,464.4023 Q418.25,464.0273 418.5,463.793 Q418.7656,463.5586 419.3906,463.5586 L427.0156,463.5586 L427.0156,466.1523 Q427.0156,466.7617 426.7813,467.0273 Q426.5625,467.2773 426.1719,467.2773 Q425.7969,467.2773 425.5625,467.0273 Q425.3281,466.7617 425.3281,466.1523 L425.3281,465.2617 L421.3594,465.2617 L421.3594,467.7148 L422.8438,467.7148 Q422.8438,467.0586 422.9688,466.8711 Q423.2344,466.4648 423.7031,466.4648 Q424.0781,466.4648 424.3125,466.7305 Q424.5469,466.9805 424.5469,467.5898 L424.5469,469.5586 Q424.5469,470.1055 424.4219,470.293 Q424.1563,470.6836 423.7031,470.6836 Q423.2344,470.6836 422.9688,470.2773 Q422.8438,470.0898 422.8438,469.418 L421.3594,469.418 Z " fill="#000000"/><a href="/entities/erdiagram/er_format_v2?id=Romashka.ApplicationDataObject.SPPR.Dokument.rtGruppirovkaProektnykhZadach" target="_top" title="/entities/erdiagram/er_format_v2?id=Romashka.ApplicationDataObject.SPPR.Dokument.rtGruppirovkaProektnykhZadach" xlink:actuate="onRequest" xlink:href="/entities/erdiagram/er_format_v2?id=Romashka.ApplicationDataObject.SPPR.Dokument.rtGruppirovkaProektnykhZadach" xlink:show="new" xlink:title="/entities/erdiagram/er_format_v2?id=Romashka.ApplicationDataObject.SPPR.Dokument.rtGruppirovkaProektnykhZadach" xlink:type="simple"><text fill="#0000FF" font-family="sans-serif" font-size="14" lengthAdjust="spacing" text-decoration="underline" textLength="198" x="436.5" y="474.418">&#1043;&#1088;&#1091;&#1087;&#1087;&#1080;&#1088;&#1086;&#1074;&#1082;&#1072; &#1087;&#1088;&#1086;&#1077;&#1082;&#1090;&#1085;&#1099;&#1093; &#1079;&#1072;&#1076;&#1072;&#1095;</text></a><line style="stroke:#181818;stroke-width:0.5;" x1="408.5" x2="636.5" y1="484.6211" y2="484.6211"/><text fill="#000000" font-family="sans-serif" font-size="14" lengthAdjust="spacing" textLength="93" x="413.5" y="503.7285">&#1042;&#1080;&#1076;&#1054;&#1087;&#1077;&#1088;&#1072;&#1094;&#1080;&#1080;</text><text fill="#000000" font-family="sans-serif" font-size="14" lengthAdjust="spacing" textLength="32" x="413.5" y="522.3496">&#1044;&#1072;&#1090;&#1072;</text><text fill="#000000" font-family="sans-serif" font-size="14" lengthAdjust="spacing" textLength="43" x="413.5" y="540.9707">&#1053;&#1086;&#1084;&#1077;&#1088;</text><text fill="#000000" font-family="sans-serif" font-size="14" lengthAdjust="spacing" textLength="121" x="413.5" y="559.5918">&#1055;&#1086;&#1084;&#1077;&#1090;&#1082;&#1072;&#1059;&#1076;&#1072;&#1083;&#1077;&#1085;&#1080;&#1103;</text><text fill="#000000" font-family="sans-serif" font-size="14" lengthAdjust="spacing" textLength="64" x="413.5" y="578.2129">&#1055;&#1088;&#1086;&#1074;&#1077;&#1076;&#1077;&#1085;</text><text fill="#000000" font-family="sans-serif" font-size="14" lengthAdjust="spacing" textLength="46" x="413.5" y="596.834">&#1055;&#1088;&#1086;&#1077;&#1082;&#1090;</text><text fill="#000000" font-family="sans-serif" font-size="14" lengthAdjust="spacing" textLength="56" x="413.5" y="615.4551">&#1055;&#1088;&#1086;&#1094;&#1077;&#1089;&#1089;</text><text fill="#000000" font-family="sans-serif" font-size="14" lengthAdjust="spacing" textLength="101" x="413.5" y="634.0762">&#1056;&#1072;&#1079;&#1076;&#1077;&#1083;&#1055;&#1088;&#1086;&#1077;&#1082;&#1090;&#1072;</text><text fill="#000000" font-family="sans-serif" font-size="14" lengthAdjust="spacing" textLength="49" x="413.5" y="652.6973">&#1057;&#1089;&#1099;&#1083;&#1082;&#1072;</text><line style="stroke:#181818;stroke-width:0.5;" x1="408.5" x2="636.5" y1="660.2109" y2="660.2109"/></g><!--class Romashka_ApplicationDataObject_SPPR_Spravochnik_Proekty--><g id="elem_Romashka_ApplicationDataObject_SPPR_Spravochnik_Proekty"><rect codeLine="17" fill="#F1F1F1" height="345.9375" id="Romashka_ApplicationDataObject_SPPR_Spravochnik_Proekty" rx="2.5" ry="2.5" style="stroke:#181818;stroke-width:0.5;" width="371" x="7" y="46.6211"/><ellipse cx="160.25" cy="62.6211" fill="#ADD1B2" rx="11" ry="11" style="stroke:#181818;stroke-width:1.0;"/><path d="M159.1094,63.418 L159.1094,65.918 L163.4375,65.918 L163.4375,64.9961 Q163.4375,64.3867 163.6719,64.1211 Q163.9219,63.8555 164.2969,63.8555 Q164.6719,63.8555 164.9063,64.1211 Q165.1406,64.3867 165.1406,64.9961 L165.1406,67.6211 L157.1406,67.6211 Q156.5156,67.6211 156.25,67.3867 Q156,67.1523 156,66.7617 Q156,66.3867 156.2656,66.1523 Q156.5313,65.918 157.1406,65.918 L157.4063,65.918 L157.4063,59.2617 L157.1406,59.2617 Q156.5156,59.2617 156.25,59.0273 Q156,58.793 156,58.4023 Q156,58.0273 156.25,57.793 Q156.5156,57.5586 157.1406,57.5586 L164.7656,57.5586 L164.7656,60.1523 Q164.7656,60.7617 164.5313,61.0273 Q164.3125,61.2773 163.9219,61.2773 Q163.5469,61.2773 163.3125,61.0273 Q163.0781,60.7617 163.0781,60.1523 L163.0781,59.2617 L159.1094,59.2617 L159.1094,61.7148 L160.5938,61.7148 Q160.5938,61.0586 160.7188,60.8711 Q160.9844,60.4648 161.4531,60.4648 Q161.8281,60.4648 162.0625,60.7305 Q162.2969,60.9805 162.2969,61.5898 L162.2969,63.5586 Q162.2969,64.1055 162.1719,64.293 Q161.9063,64.6836 161.4531,64.6836 Q160.9844,64.6836 160.7188,64.2773 Q160.5938,64.0898 160.5938,63.418 L159.1094,63.418 Z " fill="#000000"/><a href="/entities/erdiagram/er_format_v2?id=Romashka.ApplicationDataObject.SPPR.Spravochnik.Proekty" target="_top" title="/entities/erdiagram/er_format_v2?id=Romashka.ApplicationDataObject.SPPR.Spravochnik.Proekty" xlink:actuate="onRequest" xlink:href="/entities/erdiagram/er_format_v2?id=Romashka.ApplicationDataObject.SPPR.Spravochnik.Proekty" xlink:show="new" xlink:title="/entities/erdiagram/er_format_v2?id=Romashka.ApplicationDataObject.SPPR.Spravochnik.Proekty" xlink:type="simple"><text fill="#0000FF" font-family="sans-serif" font-size="14" lengthAdjust="spacing" text-decoration="underline" textLength="56" x="180.75" y="68.418">&#1055;&#1088;&#1086;&#1077;&#1082;&#1090;&#1099;</text></a><line style="stroke:#181818;stroke-width:0.5;" x1="8" x2="377" y1="78.6211" y2="78.6211"/><text fill="#000000" font-family="sans-serif" font-size="14" lengthAdjust="spacing" textLength="115" x="13" y="97.7285">&#1040;&#1076;&#1088;&#1077;&#1089;Git&#1057;&#1077;&#1088;&#1074;&#1077;&#1088;&#1072;</text><text fill="#000000" font-family="sans-serif" font-size="14" lengthAdjust="spacing" textLength="276" x="13" y="116.3496">&#1042;&#1072;&#1088;&#1080;&#1072;&#1085;&#1090;&#1053;&#1072;&#1087;&#1088;&#1072;&#1074;&#1083;&#1077;&#1085;&#1080;&#1103;&#1054;&#1096;&#1080;&#1073;&#1086;&#1082;&#1053;&#1072;&#1047;&#1072;&#1082;&#1088;&#1099;&#1090;&#1080;&#1077;</text><text fill="#000000" font-family="sans-serif" font-size="14" lengthAdjust="spacing" textLength="274" x="13" y="134.9707">&#1042;&#1072;&#1088;&#1080;&#1072;&#1085;&#1090;&#1053;&#1072;&#1087;&#1088;&#1072;&#1074;&#1083;&#1077;&#1085;&#1080;&#1103;&#1054;&#1096;&#1080;&#1073;&#1086;&#1082;&#1053;&#1072;&#1055;&#1088;&#1086;&#1074;&#1077;&#1088;&#1082;&#1091;</text><text fill="#000000" font-family="sans-serif" font-size="14" lengthAdjust="spacing" textLength="152" x="13" y="153.5918">&#1048;&#1084;&#1103;&#1042;&#1077;&#1090;&#1082;&#1080;&#1056;&#1077;&#1087;&#1086;&#1079;&#1080;&#1090;&#1086;&#1088;&#1080;&#1103;</text><text fill="#000000" font-family="sans-serif" font-size="14" lengthAdjust="spacing" textLength="359" x="13" y="172.2129">&#1048;&#1084;&#1103;&#1055;&#1086;&#1083;&#1100;&#1079;&#1086;&#1074;&#1072;&#1090;&#1077;&#1083;&#1103;&#1061;&#1088;&#1072;&#1085;&#1080;&#1083;&#1080;&#1097;&#1072;&#1044;&#1083;&#1103;&#1047;&#1072;&#1075;&#1088;&#1091;&#1079;&#1082;&#1080;&#1052;&#1077;&#1090;&#1072;&#1076;&#1072;&#1085;&#1085;&#1099;&#1093;</text><text fill="#000000" font-family="sans-serif" font-size="14" lengthAdjust="spacing" textLength="206" x="13" y="190.834">&#1048;&#1084;&#1103;&#1055;&#1088;&#1077;&#1076;&#1086;&#1087;&#1088;&#1077;&#1076;&#1077;&#1083;&#1077;&#1085;&#1085;&#1099;&#1093;&#1044;&#1072;&#1085;&#1085;&#1099;&#1093;</text><text fill="#000000" font-family="sans-serif" font-size="14" lengthAdjust="spacing" textLength="234" x="13" y="209.4551">&#1050;&#1072;&#1090;&#1072;&#1083;&#1086;&#1075;&#1048;&#1041;&#1044;&#1083;&#1103;&#1047;&#1072;&#1075;&#1088;&#1091;&#1079;&#1082;&#1080;&#1052;&#1077;&#1090;&#1072;&#1076;&#1072;&#1085;&#1085;&#1099;&#1093;</text><text fill="#000000" font-family="sans-serif" font-size="14" lengthAdjust="spacing" textLength="290" x="13" y="228.0762">&#1050;&#1072;&#1090;&#1072;&#1083;&#1086;&#1075;&#1061;&#1088;&#1072;&#1085;&#1080;&#1083;&#1080;&#1097;&#1072;&#1044;&#1083;&#1103;&#1047;&#1072;&#1075;&#1088;&#1091;&#1079;&#1082;&#1080;&#1052;&#1077;&#1090;&#1072;&#1076;&#1072;&#1085;&#1085;&#1099;&#1093;</text><text fill="#000000" font-family="sans-serif" font-size="14" lengthAdjust="spacing" textLength="24" x="13" y="246.6973">&#1050;&#1086;&#1076;</text><text fill="#000000" font-family="sans-serif" font-size="14" lengthAdjust="spacing" textLength="98" x="13" y="265.3184">&#1053;&#1072;&#1080;&#1084;&#1077;&#1085;&#1086;&#1074;&#1072;&#1085;&#1080;&#1077;</text><text fill="#000000" font-family="sans-serif" font-size="14" lengthAdjust="spacing" textLength="121" x="13" y="283.9395">&#1055;&#1086;&#1084;&#1077;&#1090;&#1082;&#1072;&#1059;&#1076;&#1072;&#1083;&#1077;&#1085;&#1080;&#1103;</text><text fill="#000000" font-family="sans-serif" font-size="14" lengthAdjust="spacing" textLength="131" x="13" y="302.5605">&#1055;&#1088;&#1077;&#1076;&#1086;&#1087;&#1088;&#1077;&#1076;&#1077;&#1083;&#1077;&#1085;&#1085;&#1099;&#1081;</text><text fill="#000000" font-family="sans-serif" font-size="14" lengthAdjust="spacing" textLength="187" x="13" y="321.1816">&#1055;&#1091;&#1090;&#1100;&#1050;&#1055;&#1088;&#1086;&#1077;&#1082;&#1090;&#1091;&#1042;&#1056;&#1077;&#1087;&#1086;&#1079;&#1080;&#1090;&#1086;&#1088;&#1080;&#1080;</text><text fill="#000000" font-family="sans-serif" font-size="14" lengthAdjust="spacing" textLength="120" x="13" y="339.8027">&#1056;&#1077;&#1078;&#1080;&#1084;&#1056;&#1072;&#1079;&#1088;&#1072;&#1073;&#1086;&#1090;&#1082;&#1080;</text><text fill="#000000" font-family="sans-serif" font-size="14" lengthAdjust="spacing" textLength="262" x="13" y="358.4238">&#1056;&#1077;&#1078;&#1080;&#1084;&#1056;&#1072;&#1079;&#1088;&#1072;&#1073;&#1086;&#1090;&#1082;&#1080;&#1058;&#1077;&#1093;&#1085;&#1080;&#1095;&#1077;&#1089;&#1082;&#1080;&#1093;&#1055;&#1088;&#1086;&#1077;&#1082;&#1090;&#1086;&#1074;</text><text fill="#000000" font-family="sans-serif" font-size="14" lengthAdjust="spacing" textLength="49" x="13" y="377.0449">&#1057;&#1089;&#1099;&#1083;&#1082;&#1072;</text><line style="stroke:#181818;stroke-width:0.5;" x1="8" x2="377" y1="384.5586" y2="384.5586"/></g><!--class Romashka_ApplicationDataObject_SPPR_Spravochnik_Protsessy--><g id="elem_Romashka_ApplicationDataObject_SPPR_Spravochnik_Protsessy"><rect codeLine="36" fill="#F1F1F1" height="252.832" id="Romashka_ApplicationDataObject_SPPR_Spravochnik_Protsessy" rx="2.5" ry="2.5" style="stroke:#181818;stroke-width:0.5;" width="218" x="413.5" y="93.1211"/><ellipse cx="485.25" cy="109.1211" fill="#ADD1B2" rx="11" ry="11" style="stroke:#181818;stroke-width:1.0;"/><path d="M484.1094,109.918 L484.1094,112.418 L488.4375,112.418 L488.4375,111.4961 Q488.4375,110.8867 488.6719,110.6211 Q488.9219,110.3555 489.2969,110.3555 Q489.6719,110.3555 489.9063,110.6211 Q490.1406,110.8867 490.1406,111.4961 L490.1406,114.1211 L482.1406,114.1211 Q481.5156,114.1211 481.25,113.8867 Q481,113.6523 481,113.2617 Q481,112.8867 481.2656,112.6523 Q481.5313,112.418 482.1406,112.418 L482.4063,112.418 L482.4063,105.7617 L482.1406,105.7617 Q481.5156,105.7617 481.25,105.5273 Q481,105.293 481,104.9023 Q481,104.5273 481.25,104.293 Q481.5156,104.0586 482.1406,104.0586 L489.7656,104.0586 L489.7656,106.6523 Q489.7656,107.2617 489.5313,107.5273 Q489.3125,107.7773 488.9219,107.7773 Q488.5469,107.7773 488.3125,107.5273 Q488.0781,107.2617 488.0781,106.6523 L488.0781,105.7617 L484.1094,105.7617 L484.1094,108.2148 L485.5938,108.2148 Q485.5938,107.5586 485.7188,107.3711 Q485.9844,106.9648 486.4531,106.9648 Q486.8281,106.9648 487.0625,107.2305 Q487.2969,107.4805 487.2969,108.0898 L487.2969,110.0586 Q487.2969,110.6055 487.1719,110.793 Q486.9063,111.1836 486.4531,111.1836 Q485.9844,111.1836 485.7188,110.7773 Q485.5938,110.5898 485.5938,109.918 L484.1094,109.918 Z " fill="#000000"/><a href="/entities/erdiagram/er_format_v2?id=Romashka.ApplicationDataObject.SPPR.Spravochnik.Protsessy" target="_top" title="/entities/erdiagram/er_format_v2?id=Romashka.ApplicationDataObject.SPPR.Spravochnik.Protsessy" xlink:actuate="onRequest" xlink:href="/entities/erdiagram/er_format_v2?id=Romashka.ApplicationDataObject.SPPR.Spravochnik.Protsessy" xlink:show="new" xlink:title="/entities/erdiagram/er_format_v2?id=Romashka.ApplicationDataObject.SPPR.Spravochnik.Protsessy" xlink:type="simple"><text fill="#0000FF" font-family="sans-serif" font-size="14" lengthAdjust="spacing" text-decoration="underline" textLength="66" x="505.75" y="114.918">&#1055;&#1088;&#1086;&#1094;&#1077;&#1089;&#1089;&#1099;</text></a><line style="stroke:#181818;stroke-width:0.5;" x1="414.5" x2="630.5" y1="125.1211" y2="125.1211"/><text fill="#000000" font-family="sans-serif" font-size="14" lengthAdjust="spacing" textLength="66" x="419.5" y="144.2285">&#1042;&#1083;&#1072;&#1076;&#1077;&#1083;&#1077;&#1094;</text><text fill="#000000" font-family="sans-serif" font-size="14" lengthAdjust="spacing" textLength="206" x="419.5" y="162.8496">&#1048;&#1084;&#1103;&#1055;&#1088;&#1077;&#1076;&#1086;&#1087;&#1088;&#1077;&#1076;&#1077;&#1083;&#1077;&#1085;&#1085;&#1099;&#1093;&#1044;&#1072;&#1085;&#1085;&#1099;&#1093;</text><text fill="#000000" font-family="sans-serif" font-size="14" lengthAdjust="spacing" textLength="24" x="419.5" y="181.4707">&#1050;&#1086;&#1076;</text><text fill="#000000" font-family="sans-serif" font-size="14" lengthAdjust="spacing" textLength="98" x="419.5" y="200.0918">&#1053;&#1072;&#1080;&#1084;&#1077;&#1085;&#1086;&#1074;&#1072;&#1085;&#1080;&#1077;</text><text fill="#000000" font-family="sans-serif" font-size="14" lengthAdjust="spacing" textLength="121" x="419.5" y="218.7129">&#1055;&#1086;&#1084;&#1077;&#1090;&#1082;&#1072;&#1059;&#1076;&#1072;&#1083;&#1077;&#1085;&#1080;&#1103;</text><text fill="#000000" font-family="sans-serif" font-size="14" lengthAdjust="spacing" textLength="131" x="419.5" y="237.334">&#1055;&#1088;&#1077;&#1076;&#1086;&#1087;&#1088;&#1077;&#1076;&#1077;&#1083;&#1077;&#1085;&#1085;&#1099;&#1081;</text><text fill="#000000" font-family="sans-serif" font-size="14" lengthAdjust="spacing" textLength="160" x="419.5" y="255.9551">&#1056;&#1058;_&#1050;&#1086;&#1076;&#1041;&#1080;&#1079;&#1085;&#1077;&#1089;&#1055;&#1088;&#1086;&#1094;&#1077;&#1089;&#1089;&#1072;</text><text fill="#000000" font-family="sans-serif" font-size="14" lengthAdjust="spacing" textLength="101" x="419.5" y="274.5762">&#1056;&#1072;&#1079;&#1076;&#1077;&#1083;&#1055;&#1088;&#1086;&#1077;&#1082;&#1090;&#1072;</text><text fill="#000000" font-family="sans-serif" font-size="14" lengthAdjust="spacing" textLength="64" x="419.5" y="293.1973">&#1056;&#1086;&#1076;&#1080;&#1090;&#1077;&#1083;&#1100;</text><text fill="#000000" font-family="sans-serif" font-size="14" lengthAdjust="spacing" textLength="49" x="419.5" y="311.8184">&#1057;&#1089;&#1099;&#1083;&#1082;&#1072;</text><text fill="#000000" font-family="sans-serif" font-size="14" lengthAdjust="spacing" textLength="72" x="419.5" y="330.4395">&#1069;&#1090;&#1086;&#1043;&#1088;&#1091;&#1087;&#1087;&#1072;</text><line style="stroke:#181818;stroke-width:0.5;" x1="414.5" x2="630.5" y1="337.9531" y2="337.9531"/></g><!--class Romashka_ApplicationDataObject_SPPR_Spravochnik_RazdelyProekta--><g id="elem_Romashka_ApplicationDataObject_SPPR_Spravochnik_RazdelyProekta"><rect codeLine="50" fill="#F1F1F1" height="215.5898" id="Romashka_ApplicationDataObject_SPPR_Spravochnik_RazdelyProekta" rx="2.5" ry="2.5" style="stroke:#181818;stroke-width:0.5;" width="218" x="666.5" y="111.6211"/><ellipse cx="714.25" cy="127.6211" fill="#ADD1B2" rx="11" ry="11" style="stroke:#181818;stroke-width:1.0;"/><path d="M713.1094,128.418 L713.1094,130.918 L717.4375,130.918 L717.4375,129.9961 Q717.4375,129.3867 717.6719,129.1211 Q717.9219,128.8555 718.2969,128.8555 Q718.6719,128.8555 718.9063,129.1211 Q719.1406,129.3867 719.1406,129.9961 L719.1406,132.6211 L711.1406,132.6211 Q710.5156,132.6211 710.25,132.3867 Q710,132.1523 710,131.7617 Q710,131.3867 710.2656,131.1523 Q710.5313,130.918 711.1406,130.918 L711.4063,130.918 L711.4063,124.2617 L711.1406,124.2617 Q710.5156,124.2617 710.25,124.0273 Q710,123.793 710,123.4023 Q710,123.0273 710.25,122.793 Q710.5156,122.5586 711.1406,122.5586 L718.7656,122.5586 L718.7656,125.1523 Q718.7656,125.7617 718.5313,126.0273 Q718.3125,126.2773 717.9219,126.2773 Q717.5469,126.2773 717.3125,126.0273 Q717.0781,125.7617 717.0781,125.1523 L717.0781,124.2617 L713.1094,124.2617 L713.1094,126.7148 L714.5938,126.7148 Q714.5938,126.0586 714.7188,125.8711 Q714.9844,125.4648 715.4531,125.4648 Q715.8281,125.4648 716.0625,125.7305 Q716.2969,125.9805 716.2969,126.5898 L716.2969,128.5586 Q716.2969,129.1055 716.1719,129.293 Q715.9063,129.6836 715.4531,129.6836 Q714.9844,129.6836 714.7188,129.2773 Q714.5938,129.0898 714.5938,128.418 L713.1094,128.418 Z " fill="#000000"/><a href="/entities/erdiagram/er_format_v2?id=Romashka.ApplicationDataObject.SPPR.Spravochnik.RazdelyProekta" target="_top" title="/entities/erdiagram/er_format_v2?id=Romashka.ApplicationDataObject.SPPR.Spravochnik.RazdelyProekta" xlink:actuate="onRequest" xlink:href="/entities/erdiagram/er_format_v2?id=Romashka.ApplicationDataObject.SPPR.Spravochnik.RazdelyProekta" xlink:show="new" xlink:title="/entities/erdiagram/er_format_v2?id=Romashka.ApplicationDataObject.SPPR.Spravochnik.RazdelyProekta" xlink:type="simple"><text fill="#0000FF" font-family="sans-serif" font-size="14" lengthAdjust="spacing" text-decoration="underline" textLength="114" x="734.75" y="133.418">&#1056;&#1072;&#1079;&#1076;&#1077;&#1083;&#1099; &#1087;&#1088;&#1086;&#1077;&#1082;&#1090;&#1072;</text></a><line style="stroke:#181818;stroke-width:0.5;" x1="667.5" x2="883.5" y1="143.6211" y2="143.6211"/><text fill="#000000" font-family="sans-serif" font-size="14" lengthAdjust="spacing" textLength="66" x="672.5" y="162.7285">&#1042;&#1083;&#1072;&#1076;&#1077;&#1083;&#1077;&#1094;</text><text fill="#000000" font-family="sans-serif" font-size="14" lengthAdjust="spacing" textLength="206" x="672.5" y="181.3496">&#1048;&#1084;&#1103;&#1055;&#1088;&#1077;&#1076;&#1086;&#1087;&#1088;&#1077;&#1076;&#1077;&#1083;&#1077;&#1085;&#1085;&#1099;&#1093;&#1044;&#1072;&#1085;&#1085;&#1099;&#1093;</text><text fill="#000000" font-family="sans-serif" font-size="14" lengthAdjust="spacing" textLength="24" x="672.5" y="199.9707">&#1050;&#1086;&#1076;</text><text fill="#000000" font-family="sans-serif" font-size="14" lengthAdjust="spacing" textLength="98" x="672.5" y="218.5918">&#1053;&#1072;&#1080;&#1084;&#1077;&#1085;&#1086;&#1074;&#1072;&#1085;&#1080;&#1077;</text><text fill="#000000" font-family="sans-serif" font-size="14" lengthAdjust="spacing" textLength="121" x="672.5" y="237.2129">&#1055;&#1086;&#1084;&#1077;&#1090;&#1082;&#1072;&#1059;&#1076;&#1072;&#1083;&#1077;&#1085;&#1080;&#1103;</text><text fill="#000000" font-family="sans-serif" font-size="14" lengthAdjust="spacing" textLength="131" x="672.5" y="255.834">&#1055;&#1088;&#1077;&#1076;&#1086;&#1087;&#1088;&#1077;&#1076;&#1077;&#1083;&#1077;&#1085;&#1085;&#1099;&#1081;</text><text fill="#000000" font-family="sans-serif" font-size="14" lengthAdjust="spacing" textLength="64" x="672.5" y="274.4551">&#1056;&#1086;&#1076;&#1080;&#1090;&#1077;&#1083;&#1100;</text><text fill="#000000" font-family="sans-serif" font-size="14" lengthAdjust="spacing" textLength="49" x="672.5" y="293.0762">&#1057;&#1089;&#1099;&#1083;&#1082;&#1072;</text><text fill="#000000" font-family="sans-serif" font-size="14" lengthAdjust="spacing" textLength="72" x="672.5" y="311.6973">&#1069;&#1090;&#1086;&#1043;&#1088;&#1091;&#1087;&#1087;&#1072;</text><line style="stroke:#181818;stroke-width:0.5;" x1="667.5" x2="883.5" y1="319.2109" y2="319.2109"/></g><!--class Romashka_ApplicationDataObject_SPPR_RegistrSvedeniy_NaboryZnacheniyDostupa--><g id="elem_Romashka_ApplicationDataObject_SPPR_RegistrSvedeniy_NaboryZnacheniyDostupa"><rect codeLine="62" fill="#F1F1F1" height="66.6211" id="Romashka_ApplicationDataObject_SPPR_RegistrSvedeniy_NaboryZnacheniyDostupa" rx="2.5" ry="2.5" style="stroke:#181818;stroke-width:0.5;" width="205" x="42" y="737.6211"/><ellipse cx="57" cy="753.6211" fill="#ADD1B2" rx="11" ry="11" style="stroke:#181818;stroke-width:1.0;"/><path d="M55.8594,754.418 L55.8594,756.918 L60.1875,756.918 L60.1875,755.9961 Q60.1875,755.3867 60.4219,755.1211 Q60.6719,754.8555 61.0469,754.8555 Q61.4219,754.8555 61.6563,755.1211 Q61.8906,755.3867 61.8906,755.9961 L61.8906,758.6211 L53.8906,758.6211 Q53.2656,758.6211 53,758.3867 Q52.75,758.1523 52.75,757.7617 Q52.75,757.3867 53.0156,757.1523 Q53.2813,756.918 53.8906,756.918 L54.1563,756.918 L54.1563,750.2617 L53.8906,750.2617 Q53.2656,750.2617 53,750.0273 Q52.75,749.793 52.75,749.4023 Q52.75,749.0273 53,748.793 Q53.2656,748.5586 53.8906,748.5586 L61.5156,748.5586 L61.5156,751.1523 Q61.5156,751.7617 61.2813,752.0273 Q61.0625,752.2773 60.6719,752.2773 Q60.2969,752.2773 60.0625,752.0273 Q59.8281,751.7617 59.8281,751.1523 L59.8281,750.2617 L55.8594,750.2617 L55.8594,752.7148 L57.3438,752.7148 Q57.3438,752.0586 57.4688,751.8711 Q57.7344,751.4648 58.2031,751.4648 Q58.5781,751.4648 58.8125,751.7305 Q59.0469,751.9805 59.0469,752.5898 L59.0469,754.5586 Q59.0469,755.1055 58.9219,755.293 Q58.6563,755.6836 58.2031,755.6836 Q57.7344,755.6836 57.4688,755.2773 Q57.3438,755.0898 57.3438,754.418 L55.8594,754.418 Z " fill="#000000"/><a href="/entities/erdiagram/er_format_v2?id=Romashka.ApplicationDataObject.SPPR.RegistrSvedeniy.NaboryZnacheniyDostupa" target="_top" title="/entities/erdiagram/er_format_v2?id=Romashka.ApplicationDataObject.SPPR.RegistrSvedeniy.NaboryZnacheniyDostupa" xlink:actuate="onRequest" xlink:href="/entities/erdiagram/er_format_v2?id=Romashka.ApplicationDataObject.SPPR.RegistrSvedeniy.NaboryZnacheniyDostupa" xlink:show="new" xlink:title="/entities/erdiagram/er_format_v2?id=Romashka.ApplicationDataObject.SPPR.RegistrSvedeniy.NaboryZnacheniyDostupa" xlink:type="simple"><text fill="#0000FF" font-family="sans-serif" font-size="14" lengthAdjust="spacing" text-decoration="underline" textLength="173" x="71" y="759.418">&#1053;&#1072;&#1073;&#1086;&#1088;&#1099; &#1079;&#1085;&#1072;&#1095;&#1077;&#1085;&#1080;&#1081; &#1076;&#1086;&#1089;&#1090;&#1091;&#1087;&#1072;</text></a><line style="stroke:#181818;stroke-width:0.5;" x1="43" x2="246" y1="769.6211" y2="769.6211"/><text fill="#000000" font-family="sans-serif" font-size="14" lengthAdjust="spacing" textLength="49" x="48" y="788.7285">&#1054;&#1073;&#1098;&#1077;&#1082;&#1090;</text><line style="stroke:#181818;stroke-width:0.5;" x1="43" x2="246" y1="796.2422" y2="796.2422"/></g><!--class Romashka_ApplicationDataObject_SPPR_RegistrSvedeniy_NastroykiOchistkiFaylov--><g id="elem_Romashka_ApplicationDataObject_SPPR_RegistrSvedeniy_NastroykiOchistkiFaylov"><rect codeLine="66" fill="#F1F1F1" height="66.6211" id="Romashka_ApplicationDataObject_SPPR_RegistrSvedeniy_NastroykiOchistkiFaylov" rx="2.5" ry="2.5" style="stroke:#181818;stroke-width:0.5;" width="210" x="282.5" y="737.6211"/><ellipse cx="297.5" cy="753.6211" fill="#ADD1B2" rx="11" ry="11" style="stroke:#181818;stroke-width:1.0;"/><path d="M296.3594,754.418 L296.3594,756.918 L300.6875,756.918 L300.6875,755.9961 Q300.6875,755.3867 300.9219,755.1211 Q301.1719,754.8555 301.5469,754.8555 Q301.9219,754.8555 302.1563,755.1211 Q302.3906,755.3867 302.3906,755.9961 L302.3906,758.6211 L294.3906,758.6211 Q293.7656,758.6211 293.5,758.3867 Q293.25,758.1523 293.25,757.7617 Q293.25,757.3867 293.5156,757.1523 Q293.7813,756.918 294.3906,756.918 L294.6563,756.918 L294.6563,750.2617 L294.3906,750.2617 Q293.7656,750.2617 293.5,750.0273 Q293.25,749.793 293.25,749.4023 Q293.25,749.0273 293.5,748.793 Q293.7656,748.5586 294.3906,748.5586 L302.0156,748.5586 L302.0156,751.1523 Q302.0156,751.7617 301.7813,752.0273 Q301.5625,752.2773 301.1719,752.2773 Q300.7969,752.2773 300.5625,752.0273 Q300.3281,751.7617 300.3281,751.1523 L300.3281,750.2617 L296.3594,750.2617 L296.3594,752.7148 L297.8438,752.7148 Q297.8438,752.0586 297.9688,751.8711 Q298.2344,751.4648 298.7031,751.4648 Q299.0781,751.4648 299.3125,751.7305 Q299.5469,751.9805 299.5469,752.5898 L299.5469,754.5586 Q299.5469,755.1055 299.4219,755.293 Q299.1563,755.6836 298.7031,755.6836 Q298.2344,755.6836 297.9688,755.2773 Q297.8438,755.0898 297.8438,754.418 L296.3594,754.418 Z " fill="#000000"/><a href="/entities/erdiagram/er_format_v2?id=Romashka.ApplicationDataObject.SPPR.RegistrSvedeniy.NastroykiOchistkiFaylov" target="_top" title="/entities/erdiagram/er_format_v2?id=Romashka.ApplicationDataObject.SPPR.RegistrSvedeniy.NastroykiOchistkiFaylov" xlink:actuate="onRequest" xlink:href="/entities/erdiagram/er_format_v2?id=Romashka.ApplicationDataObject.SPPR.RegistrSvedeniy.NastroykiOchistkiFaylov" xlink:show="new" xlink:title="/entities/erdiagram/er_format_v2?id=Romashka.ApplicationDataObject.SPPR.RegistrSvedeniy.NastroykiOchistkiFaylov" xlink:type="simple"><text fill="#0000FF" font-family="sans-serif" font-size="14" lengthAdjust="spacing" text-decoration="underline" textLength="178" x="311.5" y="759.418">&#1053;&#1072;&#1089;&#1090;&#1088;&#1086;&#1081;&#1082;&#1080; &#1086;&#1095;&#1080;&#1089;&#1090;&#1082;&#1080; &#1092;&#1072;&#1081;&#1083;&#1086;&#1074;</text></a><line style="stroke:#181818;stroke-width:0.5;" x1="283.5" x2="491.5" y1="769.6211" y2="769.6211"/><text fill="#000000" font-family="sans-serif" font-size="14" lengthAdjust="spacing" textLength="109" x="288.5" y="788.7285">&#1042;&#1083;&#1072;&#1076;&#1077;&#1083;&#1077;&#1094;&#1060;&#1072;&#1081;&#1083;&#1072;</text><line style="stroke:#181818;stroke-width:0.5;" x1="283.5" x2="491.5" y1="796.2422" y2="796.2422"/></g><!--class Romashka_ApplicationDataObject_SPPR_RegistrSvedeniy_NastroykiSinkhronizatsiiFaylov--><g id="elem_Romashka_ApplicationDataObject_SPPR_RegistrSvedeniy_NastroykiSinkhronizatsiiFaylov"><rect codeLine="70" fill="#F1F1F1" height="85.2422" id="Romashka_ApplicationDataObject_SPPR_RegistrSvedeniy_NastroykiSinkhronizatsiiFaylov" rx="2.5" ry="2.5" style="stroke:#181818;stroke-width:0.5;" width="259" x="528" y="728.6211"/><ellipse cx="543" cy="744.6211" fill="#ADD1B2" rx="11" ry="11" style="stroke:#181818;stroke-width:1.0;"/><path d="M541.8594,745.418 L541.8594,747.918 L546.1875,747.918 L546.1875,746.9961 Q546.1875,746.3867 546.4219,746.1211 Q546.6719,745.8555 547.0469,745.8555 Q547.4219,745.8555 547.6563,746.1211 Q547.8906,746.3867 547.8906,746.9961 L547.8906,749.6211 L539.8906,749.6211 Q539.2656,749.6211 539,749.3867 Q538.75,749.1523 538.75,748.7617 Q538.75,748.3867 539.0156,748.1523 Q539.2813,747.918 539.8906,747.918 L540.1563,747.918 L540.1563,741.2617 L539.8906,741.2617 Q539.2656,741.2617 539,741.0273 Q538.75,740.793 538.75,740.4023 Q538.75,740.0273 539,739.793 Q539.2656,739.5586 539.8906,739.5586 L547.5156,739.5586 L547.5156,742.1523 Q547.5156,742.7617 547.2813,743.0273 Q547.0625,743.2773 546.6719,743.2773 Q546.2969,743.2773 546.0625,743.0273 Q545.8281,742.7617 545.8281,742.1523 L545.8281,741.2617 L541.8594,741.2617 L541.8594,743.7148 L543.3438,743.7148 Q543.3438,743.0586 543.4688,742.8711 Q543.7344,742.4648 544.2031,742.4648 Q544.5781,742.4648 544.8125,742.7305 Q545.0469,742.9805 545.0469,743.5898 L545.0469,745.5586 Q545.0469,746.1055 544.9219,746.293 Q544.6563,746.6836 544.2031,746.6836 Q543.7344,746.6836 543.4688,746.2773 Q543.3438,746.0898 543.3438,745.418 L541.8594,745.418 Z " fill="#000000"/><a href="/entities/erdiagram/er_format_v2?id=Romashka.ApplicationDataObject.SPPR.RegistrSvedeniy.NastroykiSinkhronizatsiiFaylov" target="_top" title="/entities/erdiagram/er_format_v2?id=Romashka.ApplicationDataObject.SPPR.RegistrSvedeniy.NastroykiSinkhronizatsiiFaylov" xlink:actuate="onRequest" xlink:href="/entities/erdiagram/er_format_v2?id=Romashka.ApplicationDataObject.SPPR.RegistrSvedeniy.NastroykiSinkhronizatsiiFaylov" xlink:show="new" xlink:title="/entities/erdiagram/er_format_v2?id=Romashka.ApplicationDataObject.SPPR.RegistrSvedeniy.NastroykiSinkhronizatsiiFaylov" xlink:type="simple"><text fill="#0000FF" font-family="sans-serif" font-size="14" lengthAdjust="spacing" text-decoration="underline" textLength="227" x="557" y="750.418">&#1053;&#1072;&#1089;&#1090;&#1088;&#1086;&#1081;&#1082;&#1080; &#1089;&#1080;&#1085;&#1093;&#1088;&#1086;&#1085;&#1080;&#1079;&#1072;&#1094;&#1080;&#1080; &#1092;&#1072;&#1081;&#1083;&#1086;&#1074;</text></a><line style="stroke:#181818;stroke-width:0.5;" x1="529" x2="786" y1="760.6211" y2="760.6211"/><text fill="#000000" font-family="sans-serif" font-size="14" lengthAdjust="spacing" textLength="109" x="534" y="779.7285">&#1042;&#1083;&#1072;&#1076;&#1077;&#1083;&#1077;&#1094;&#1060;&#1072;&#1081;&#1083;&#1072;</text><text fill="#000000" font-family="sans-serif" font-size="14" lengthAdjust="spacing" textLength="102" x="534" y="798.3496">&#1059;&#1095;&#1077;&#1090;&#1085;&#1072;&#1103;&#1047;&#1072;&#1087;&#1080;&#1089;&#1100;</text><line style="stroke:#181818;stroke-width:0.5;" x1="529" x2="786" y1="805.8633" y2="805.8633"/></g><!--class Romashka_ApplicationDataObject_SPPR_RegistrSvedeniy_rtSoglasovanieObektov--><g id="elem_Romashka_ApplicationDataObject_SPPR_RegistrSvedeniy_rtSoglasovanieObektov"><rect codeLine="75" fill="#F1F1F1" height="85.2422" id="Romashka_ApplicationDataObject_SPPR_RegistrSvedeniy_rtSoglasovanieObektov" rx="2.5" ry="2.5" style="stroke:#181818;stroke-width:0.5;" width="190" x="822.5" y="728.6211"/><ellipse cx="837.5" cy="744.6211" fill="#ADD1B2" rx="11" ry="11" style="stroke:#181818;stroke-width:1.0;"/><path d="M836.3594,745.418 L836.3594,747.918 L840.6875,747.918 L840.6875,746.9961 Q840.6875,746.3867 840.9219,746.1211 Q841.1719,745.8555 841.5469,745.8555 Q841.9219,745.8555 842.1563,746.1211 Q842.3906,746.3867 842.3906,746.9961 L842.3906,749.6211 L834.3906,749.6211 Q833.7656,749.6211 833.5,749.3867 Q833.25,749.1523 833.25,748.7617 Q833.25,748.3867 833.5156,748.1523 Q833.7813,747.918 834.3906,747.918 L834.6563,747.918 L834.6563,741.2617 L834.3906,741.2617 Q833.7656,741.2617 833.5,741.0273 Q833.25,740.793 833.25,740.4023 Q833.25,740.0273 833.5,739.793 Q833.7656,739.5586 834.3906,739.5586 L842.0156,739.5586 L842.0156,742.1523 Q842.0156,742.7617 841.7813,743.0273 Q841.5625,743.2773 841.1719,743.2773 Q840.7969,743.2773 840.5625,743.0273 Q840.3281,742.7617 840.3281,742.1523 L840.3281,741.2617 L836.3594,741.2617 L836.3594,743.7148 L837.8438,743.7148 Q837.8438,743.0586 837.9688,742.8711 Q838.2344,742.4648 838.7031,742.4648 Q839.0781,742.4648 839.3125,742.7305 Q839.5469,742.9805 839.5469,743.5898 L839.5469,745.5586 Q839.5469,746.1055 839.4219,746.293 Q839.1563,746.6836 838.7031,746.6836 Q838.2344,746.6836 837.9688,746.2773 Q837.8438,746.0898 837.8438,745.418 L836.3594,745.418 Z " fill="#000000"/><a href="/entities/erdiagram/er_format_v2?id=Romashka.ApplicationDataObject.SPPR.RegistrSvedeniy.rtSoglasovanieObektov" target="_top" title="/entities/erdiagram/er_format_v2?id=Romashka.ApplicationDataObject.SPPR.RegistrSvedeniy.rtSoglasovanieObektov" xlink:actuate="onRequest" xlink:href="/entities/erdiagram/er_format_v2?id=Romashka.ApplicationDataObject.SPPR.RegistrSvedeniy.rtSoglasovanieObektov" xlink:show="new" xlink:title="/entities/erdiagram/er_format_v2?id=Romashka.ApplicationDataObject.SPPR.RegistrSvedeniy.rtSoglasovanieObektov" xlink:type="simple"><text fill="#0000FF" font-family="sans-serif" font-size="14" lengthAdjust="spacing" text-decoration="underline" textLength="158" x="851.5" y="750.418">&#1057;&#1086;&#1075;&#1083;&#1072;&#1089;&#1086;&#1074;&#1072;&#1085;&#1080;&#1077; &#1086;&#1073;&#1098;&#1077;&#1082;&#1090;&#1086;&#1074;</text></a><line style="stroke:#181818;stroke-width:0.5;" x1="823.5" x2="1011.5" y1="760.6211" y2="760.6211"/><text fill="#000000" font-family="sans-serif" font-size="14" lengthAdjust="spacing" textLength="138" x="828.5" y="779.7285">&#1057;&#1086;&#1075;&#1083;&#1072;&#1089;&#1091;&#1077;&#1084;&#1099;&#1081;&#1054;&#1073;&#1098;&#1077;&#1082;&#1090;</text><text fill="#000000" font-family="sans-serif" font-size="14" lengthAdjust="spacing" textLength="49" x="828.5" y="798.3496">&#1055;&#1077;&#1088;&#1080;&#1086;&#1076;</text><line style="stroke:#181818;stroke-width:0.5;" x1="823.5" x2="1011.5" y1="805.8633" y2="805.8633"/></g><!--link Romashka_ApplicationDataObject_SPPR_Spravochnik_Proekty to Romashka_ApplicationDataObject_SPPR_Dokument_rtGruppirovkaProektnykhZadach--><g id="link_Romashka_ApplicationDataObject_SPPR_Spravochnik_Proekty_Romashka_ApplicationDataObject_SPPR_Dokument_rtGruppirovkaProektnykhZadach"><path codeLine="81" d="M386.07,369.6211 C386.07,369.6211 486.17,369.6211 486.17,369.6211 C486.17,369.6211 486.17,444.5611 486.17,444.5611 " fill="none" id="Romashka_ApplicationDataObject_SPPR_Spravochnik_Proekty-Romashka_ApplicationDataObject_SPPR_Dokument_rtGruppirovkaProektnykhZadach" style="stroke:#181818;stroke-width:1.0;"/><line style="stroke:#181818;stroke-width:1.0;" x1="386.07" x2="378.07" y1="369.6211" y2="375.6211"/><line style="stroke:#181818;stroke-width:1.0;" x1="386.07" x2="378.07" y1="369.6211" y2="363.6211"/><line style="stroke:#181818;stroke-width:1.0;" x1="386.07" x2="378.07" y1="369.6211" y2="369.6211"/><line style="stroke:#181818;stroke-width:1.0;" x1="388.07" x2="388.07" y1="373.6211" y2="365.6211"/><line style="stroke:#181818;stroke-width:1.0;" x1="490.17" x2="482.17" y1="448.5611" y2="448.5611"/><line style="stroke:#181818;stroke-width:1.0;" x1="490.17" x2="482.17" y1="445.5611" y2="445.5611"/><line style="stroke:#181818;stroke-width:1.0;" x1="486.17" x2="486.17" y1="444.5611" y2="452.5611"/></g><!--link Romashka_ApplicationDataObject_SPPR_Spravochnik_Protsessy to Romashka_ApplicationDataObject_SPPR_Dokument_rtGruppirovkaProektnykhZadach--><g id="link_Romashka_ApplicationDataObject_SPPR_Spravochnik_Protsessy_Romashka_ApplicationDataObject_SPPR_Dokument_rtGruppirovkaProektnykhZadach"><path codeLine="82" d="M558.83,354.6011 C558.83,354.6011 558.83,444.5511 558.83,444.5511 " fill="none" id="Romashka_ApplicationDataObject_SPPR_Spravochnik_Protsessy-Romashka_ApplicationDataObject_SPPR_Dokument_rtGruppirovkaProektnykhZadach" style="stroke:#181818;stroke-width:1.0;"/><line style="stroke:#181818;stroke-width:1.0;" x1="558.83" x2="552.83" y1="354.6011" y2="346.6011"/><line style="stroke:#181818;stroke-width:1.0;" x1="558.83" x2="564.83" y1="354.6011" y2="346.6011"/><line style="stroke:#181818;stroke-width:1.0;" x1="558.83" x2="558.83" y1="354.6011" y2="346.6011"/><line style="stroke:#181818;stroke-width:1.0;" x1="554.83" x2="562.83" y1="356.6011" y2="356.6011"/><line style="stroke:#181818;stroke-width:1.0;" x1="562.83" x2="554.83" y1="448.5511" y2="448.5511"/><line style="stroke:#181818;stroke-width:1.0;" x1="562.83" x2="554.83" y1="445.5511" y2="445.5511"/><line style="stroke:#181818;stroke-width:1.0;" x1="558.83" x2="558.83" y1="444.5511" y2="452.5511"/></g><!--link Romashka_ApplicationDataObject_SPPR_Spravochnik_RazdelyProekta to Romashka_ApplicationDataObject_SPPR_Dokument_rtGruppirovkaProektnykhZadach--><g id="link_Romashka_ApplicationDataObject_SPPR_Spravochnik_RazdelyProekta_Romashka_ApplicationDataObject_SPPR_Dokument_rtGruppirovkaProektnykhZadach"><path codeLine="83" d="M726.75,336.0111 C726.75,336.0111 726.75,524.6211 726.75,524.6211 C726.75,524.6211 645.76,524.6211 645.76,524.6211 " fill="none" id="Romashka_ApplicationDataObject_SPPR_Spravochnik_RazdelyProekta-Romashka_ApplicationDataObject_SPPR_Dokument_rtGruppirovkaProektnykhZadach" style="stroke:#181818;stroke-width:1.0;"/><line style="stroke:#181818;stroke-width:1.0;" x1="726.75" x2="720.75" y1="336.0111" y2="328.0111"/><line style="stroke:#181818;stroke-width:1.0;" x1="726.75" x2="732.75" y1="336.0111" y2="328.0111"/><line style="stroke:#181818;stroke-width:1.0;" x1="726.75" x2="726.75" y1="336.0111" y2="328.0111"/><line style="stroke:#181818;stroke-width:1.0;" x1="722.75" x2="730.75" y1="338.0111" y2="338.0111"/><line style="stroke:#181818;stroke-width:1.0;" x1="641.76" x2="641.76" y1="528.6211" y2="520.6211"/><line style="stroke:#181818;stroke-width:1.0;" x1="644.76" x2="644.76" y1="528.6211" y2="520.6211"/><line style="stroke:#181818;stroke-width:1.0;" x1="645.76" x2="637.76" y1="524.6211" y2="524.6211"/></g><!--link Romashka_ApplicationDataObject_SPPR_Dokument_rtGruppirovkaProektnykhZadach to Romashka_ApplicationDataObject_SPPR_RegistrSvedeniy_NaboryZnacheniyDostupa--><g id="link_Romashka_ApplicationDataObject_SPPR_Dokument_rtGruppirovkaProektnykhZadach_Romashka_ApplicationDataObject_SPPR_RegistrSvedeniy_NaboryZnacheniyDostupa"><path codeLine="84" d="M399.29,560.6211 C399.29,560.6211 144.5,560.6211 144.5,560.6211 C144.5,560.6211 144.5,729.3011 144.5,729.3011 " fill="none" id="Romashka_ApplicationDataObject_SPPR_Dokument_rtGruppirovkaProektnykhZadach-Romashka_ApplicationDataObject_SPPR_RegistrSvedeniy_NaboryZnacheniyDostupa" style="stroke:#181818;stroke-width:1.0;"/><line style="stroke:#181818;stroke-width:1.0;" x1="399.29" x2="407.29" y1="560.6211" y2="554.6211"/><line style="stroke:#181818;stroke-width:1.0;" x1="399.29" x2="407.29" y1="560.6211" y2="566.6211"/><line style="stroke:#181818;stroke-width:1.0;" x1="399.29" x2="407.29" y1="560.6211" y2="560.6211"/><line style="stroke:#181818;stroke-width:1.0;" x1="397.29" x2="397.29" y1="556.6211" y2="564.6211"/><line style="stroke:#181818;stroke-width:1.0;" x1="148.5" x2="140.5" y1="733.3011" y2="733.3011"/><line style="stroke:#181818;stroke-width:1.0;" x1="148.5" x2="140.5" y1="730.3011" y2="730.3011"/><line style="stroke:#181818;stroke-width:1.0;" x1="144.5" x2="144.5" y1="729.3011" y2="737.3011"/></g><!--link Romashka_ApplicationDataObject_SPPR_Dokument_rtGruppirovkaProektnykhZadach to Romashka_ApplicationDataObject_SPPR_RegistrSvedeniy_NastroykiOchistkiFaylov--><g id="link_Romashka_ApplicationDataObject_SPPR_Dokument_rtGruppirovkaProektnykhZadach_Romashka_ApplicationDataObject_SPPR_RegistrSvedeniy_NastroykiOchistkiFaylov"><path codeLine="85" d="M450,676.6411 C450,676.6411 450,729.4511 450,729.4511 " fill="none" id="Romashka_ApplicationDataObject_SPPR_Dokument_rtGruppirovkaProektnykhZadach-Romashka_ApplicationDataObject_SPPR_RegistrSvedeniy_NastroykiOchistkiFaylov" style="stroke:#181818;stroke-width:1.0;"/><line style="stroke:#181818;stroke-width:1.0;" x1="450" x2="444" y1="676.6411" y2="668.6411"/><line style="stroke:#181818;stroke-width:1.0;" x1="450" x2="456" y1="676.6411" y2="668.6411"/><line style="stroke:#181818;stroke-width:1.0;" x1="450" x2="450" y1="676.6411" y2="668.6411"/><line style="stroke:#181818;stroke-width:1.0;" x1="446" x2="454" y1="678.6411" y2="678.6411"/><line style="stroke:#181818;stroke-width:1.0;" x1="454" x2="446" y1="733.4511" y2="733.4511"/><line style="stroke:#181818;stroke-width:1.0;" x1="454" x2="446" y1="730.4511" y2="730.4511"/><line style="stroke:#181818;stroke-width:1.0;" x1="450" x2="450" y1="729.4511" y2="737.4511"/></g><!--link Romashka_ApplicationDataObject_SPPR_Dokument_rtGruppirovkaProektnykhZadach to Romashka_ApplicationDataObject_SPPR_RegistrSvedeniy_NastroykiSinkhronizatsiiFaylov--><g id="link_Romashka_ApplicationDataObject_SPPR_Dokument_rtGruppirovkaProektnykhZadach_Romashka_ApplicationDataObject_SPPR_RegistrSvedeniy_NastroykiSinkhronizatsiiFaylov"><path codeLine="86" d="M582.75,676.6411 C582.75,676.6411 582.75,720.3511 582.75,720.3511 " fill="none" id="Romashka_ApplicationDataObject_SPPR_Dokument_rtGruppirovkaProektnykhZadach-Romashka_ApplicationDataObject_SPPR_RegistrSvedeniy_NastroykiSinkhronizatsiiFaylov" style="stroke:#181818;stroke-width:1.0;"/><line style="stroke:#181818;stroke-width:1.0;" x1="582.75" x2="576.75" y1="676.6411" y2="668.6411"/><line style="stroke:#181818;stroke-width:1.0;" x1="582.75" x2="588.75" y1="676.6411" y2="668.6411"/><line style="stroke:#181818;stroke-width:1.0;" x1="582.75" x2="582.75" y1="676.6411" y2="668.6411"/><line style="stroke:#181818;stroke-width:1.0;" x1="578.75" x2="586.75" y1="678.6411" y2="678.6411"/><line style="stroke:#181818;stroke-width:1.0;" x1="586.75" x2="578.75" y1="724.3511" y2="724.3511"/><line style="stroke:#181818;stroke-width:1.0;" x1="586.75" x2="578.75" y1="721.3511" y2="721.3511"/><line style="stroke:#181818;stroke-width:1.0;" x1="582.75" x2="582.75" y1="720.3511" y2="728.3511"/></g><!--link Romashka_ApplicationDataObject_SPPR_Dokument_rtGruppirovkaProektnykhZadach to Romashka_ApplicationDataObject_SPPR_RegistrSvedeniy_rtSoglasovanieObektov--><g id="link_Romashka_ApplicationDataObject_SPPR_Dokument_rtGruppirovkaProektnykhZadach_Romashka_ApplicationDataObject_SPPR_RegistrSvedeniy_rtSoglasovanieObektov"><path codeLine="87" d="M645.8,596.6211 C645.8,596.6211 853.5,596.6211 853.5,596.6211 C853.5,596.6211 853.5,720.4311 853.5,720.4311 " fill="none" id="Romashka_ApplicationDataObject_SPPR_Dokument_rtGruppirovkaProektnykhZadach-Romashka_ApplicationDataObject_SPPR_RegistrSvedeniy_rtSoglasovanieObektov" style="stroke:#181818;stroke-width:1.0;"/><line style="stroke:#181818;stroke-width:1.0;" x1="645.8" x2="637.8" y1="596.6211" y2="602.6211"/><line style="stroke:#181818;stroke-width:1.0;" x1="645.8" x2="637.8" y1="596.6211" y2="590.6211"/><line style="stroke:#181818;stroke-width:1.0;" x1="645.8" x2="637.8" y1="596.6211" y2="596.6211"/><line style="stroke:#181818;stroke-width:1.0;" x1="647.8" x2="647.8" y1="600.6211" y2="592.6211"/><line style="stroke:#181818;stroke-width:1.0;" x1="857.5" x2="849.5" y1="724.4311" y2="724.4311"/><line style="stroke:#181818;stroke-width:1.0;" x1="857.5" x2="849.5" y1="721.4311" y2="721.4311"/><line style="stroke:#181818;stroke-width:1.0;" x1="853.5" x2="853.5" y1="720.4311" y2="728.4311"/></g><!--SRC=[xLXHJzDG57xdLpI-EnFVZJ4X-YQ4lM5CSzagktQqIrkML2618QAEH4KJZL44qKUJYbJAniPVkFSV-TtJeXjhqOs9Ct64hUqzzvplVFSxvzxDDRbLOGwRqyhSCZo_OcYsuvNiiJ6FUsL34o_aabmHH_YBv99eYrtH484cZkWc50rP4orPbwkQs1U1s1E1N1iRq_0oB7ZmjGktRbsYIswubmodoDaiek5AlsCxSypJgvUlykALANkEkIMJvQvLAcLUO1wthN7ciOcPkqR1o-Kd9wTouxOvFmTVESUxuSnNAjongoQRT6p3z2pVB4sp8YkK1e9y-_O5ZRdQCGez5OMkKEZ7AFHJKH05z-czyoKsH8I8cy0M0auW7-8-wZLxYQ6Q27e7tY65GpMtT-XzCbHJwOeTbPXe8jyMQ7YQOfvm4y8GHba6n5V68D27Sbakzmvl8VO-EMvs-adBQ1iUwZ1h98EBVqWz-Oh3gdQXP74p5w-MtvMZhFSXWWvdUk8iQyMVYJq40Kytk2UsQTbtuyLFKqU0WGZajK3MEtmgqGQOy6CXnQPy18ilWDqWYrVuRq3nTSo8H3WSfp_4WS-6NEbr-beSOjf68hS82nv2qsqiUeGdRHKmJNJnDANKfbo7iOgXb0wTuFadmWL4G1R9nxX-ISzLYb-fgFSfs5iAIwKBQwhbp52AUnYsAUamaMHuF4qLMhQBDt4LOa9RV8N3vsV1q-rigAc-WSkzj5uHmCCXPKj4KxnmA9qZarDna3PX1VMr3foTzRO2-QJ89gqTAhDlb0ir5k8EOesrrwUv-81CLoctDLMMwXdkExiKo1gPFkMvXklw9nhkMNfLx31xVsgIscX5vSC_L5QZBTSjyK6FGQBY8sYpHJhfMe6qxjt7fhT5tgEaywt_McrTWvz9ep-FEUSdo2bshsYK_NZBOrqfotht4IiOKABT8Vxhz3IT_ZiYcZ9ckUiv-QfHD2pkvswo6TlnfoqSbTNzkErwynKMawjQzPAIawgyG7LfOlX0K-GWfHeXxaTV9wBhwT6pjBOfliWd7GVXy-C8TxPlyeb22GCclyxyibqbaeW6LMm7Ql_ImCiQbB0SRt6QV00Q3-YeiNiccb81_6PDYey9YE3li9RdbbboR8lVOvxBJo4FtJn2ZQtIenPr_EIBsT29JCKq69zTfZjqbgbHlSI7o2EIm_gvKkzuUNksp5oxoYnkJCoWWIl6j-d4srIyTpPCYFPdOPsHuDJ8MRnsu44d2R5HeBtsLFc9LXxIsVHuGrYCV-COyAkYjhXmyUB2mh1_RXZuC3WYU4uSBluUgDzprm_0FZQWKG6OtVf7365sJnqDeAczwJi0]--></g></svg>